<?xml version="1.0" encoding="utf-8"?>
<!-- Generator: Adobe Illustrator 30.3.0, SVG Export Plug-In . SVG Version: 9.03 Build 0)  -->
<svg version="1.0" id="Layer_1" xmlns="http://www.w3.org/2000/svg" xmlns:xlink="http://www.w3.org/1999/xlink" x="0px" y="0px"
	 viewBox="0 0 3066 963.77" style="enable-background:new 0 0 3066 963.77;" xml:space="preserve">
<style type="text/css">
	.st0{fill:#164DC4;}
</style>
<g transform="translate(0.000000,5013.000000) scale(0.100000,-0.100000)">
	<path class="st0" d="M30660.05,42160.34l-100-2c-67-2-104,1-112,9c-20,20-27,136-22,328c4,142,3,184-7,190c-7,4-63,9-124,10
		c-60,1-115,3-121,3c-20,2-24,57-25,298c0,191-3,234-15,244c-11,9-45,10-124,6c-91-5-111-3-122,10c-9,12-12,76-11,272
		c1,141,2,259,2,263c1,4,13,14,29,21c31,16,182,14,225-2c25-10,27-15,29-78c1-38,1-83-1-100c-4-65,5-70,135-72c67,0,122-6,130-12
		c10-8,12-37,8-122c-3-69-1-118,5-127c8-11,36-16,116-18l105-4v687v687l-236-4c-130-1-240-5-245-8c-14-9-14-217,1-235
		c10-12,34-15,109-13c142,2,141,3,141-141c0-83-4-122-12-129c-7-5-63-13-123-17c-61-4-124-13-142-20c-18-8-82-15-148-16
		c-106-3-118-1-131,16c-11,15-14,90-14,401c0,315-2,384-14,393c-10,9-118,11-402,9l-389-3l-3-104c-2-65,1-108,8-116
		c9-11,64-14,251-14c135-1,248-5,258-11c21-11,31-103,22-210l-6-65l-127-3c-89-2-127-6-130-15c-1-7-1-125,2-262l5-250l117-3
		c153-3,153-3,143-164c-4-62-11-118-16-124c-11-13-229-6-246,8c-9,7-13,46-13,129c0,65-4,120-9,124c-16,9-400,11-463,2
		c-82-12-81-15-79,287c2,289-2,279,90,270c31-3,83-1,116,3l59,8l2,104c2,151,22,141-289,141c-138,0-258,4-265,9c-11,7-13,57-11,260
		c2,167,0,254-7,261c-14,14-215,20-232,7c-9-7-12-72-12-261c0-183-3-255-12-264c-8-8-48-12-115-12c-152,0-144,17-141-283l3-242h117
		c78,0,121-4,129-12c18-18,24-247,7-259c-8-6-123-8-282-4l-270,5l-8,30c-5,16-7,192-6,390l3,360l-107,5c-163,8-153,15-155-119
		c-1-69-6-118-13-125s-97-13-273-16l-262-5l-5-262c-3-183-9-266-17-274c-9-9-80-11-261-10c-193,2-251-1-259-11c-6-7-13-63-15-125
		c-1-62-8-117-13-122c-6-6-112-12-262-15c-139-2-257-7-263-11s-10-52-10-119c0-145,3-143-149-141c-100,1-115,3-128,20
		c-12,16-14,63-12,258c2,178,0,240-10,250c-14,14-504,18-518,3c-4-4-10-180-13-391c-4-293-8-387-18-397c-15-15-211-22-247-8l-25,10
		v384c0,334-2,387-16,400c-12,13-39,15-139,14l-125-1l-2-261l-3-261l-269-3c-185-2-273,1-282,9c-10,8-13,38-10,116c1,68-2,110-9,120
		c-10,13-33,16-116,17c-57,1-112-2-121-6c-16-6-18-22-18-117c0-60-2-116-5-124c-5-11-31-13-131-12c-69,2-130,7-135,12s-11,57-13,116
		c-4,81-2,110,9,120c9,9,54,16,131,21c74,4,121,12,126,19c4,7,8,64,8,128c0,89,3,119,14,128s119,11,421,9l406-3l-2,115
		c-2,64,1,121,5,128c5,8,43,12,120,12c78,0,125,5,149,15c25,10,71,15,146,15c99,0,111,2,121,19c11,22,13,100,4,177l-7,52l-106,6
		c-82,6-115,4-148-8c-32-11-101-16-288-18c-136-2-252-6-258-10c-7-4-10-48-9-127c1-66-2-122-7-125c-17-11-263-8-274,3
		c-7,7-14,60-17,126c-3,62-9,117-13,122c-13,12-787,17-799,5c-6-6-11-111-13-266c-1-189-5-259-15-271c-11-13-63-15-401-15
		c-435,0-426,1-408-65c12-43,3-715-9-727c-5-5-66-10-136-12c-114-3-128-2-136,15c-6,10-10,171-10,392c0,299-3,377-13,386
		c-9,7-106,12-275,15c-144,2-266,8-273,11c-7,5-10,44-9,119c2,61,2,117,1,124c-2,23-49,31-148,24l-98-7l-5-135l-5-135l-115-2
		c-174-4-160,6-160-123c0-60-4-112-10-115c-5-3-64-7-130-8c-94-2-123-6-130-17c-6-8-10-65-10-127c0-68-4-114-11-118
		c-5-4-124-8-263-8c-190-2-257-5-269-15c-12-11-14-30-10-111c8-137,24-129-292-132l-250-2l-13,24c-8,16-12,59-10,126
		c1,57-2,106-6,110c-3,4-186,6-406,5c-219-1-401,1-403,5c-3,5-7,124-9,266c-3,247-2,259,16,273c16,11,68,14,258,14
		c237,0,239,0,262-23c22-22,23-30,21-125c-2-67,1-104,9-110c18-15,502-10,518,6c19,19,21,207,3,226c-19,18-118,30-188,21l-54-7
		l-12,33c-6,17-11,76-11,130s-4,100-8,103c-5,3-62,6-126,7c-72,2-123,7-134,15c-13,10-16,28-14,100c2,49,5,97,8,107
		c13,44-3,47-276,47c-209,0-260,3-269,14c-8,10-13,94-16,265c-2,139-6,255-9,260c-3,4-79,9-168,9c-90,1-258,5-373,8
		c-141,4-219,3-238-5l-27-11v-102c0-57,4-108,8-115c5-8,77-12,252-14c183-1,250-5,266-15c21-13,22-18,21-271c0-142-4-266-9-276
		c-8-15-31-17-241-18c-128-1-246-4-262-8l-30-6l-3-100c-4-155-13-145,122-138l114,6l16-26c14-21,16-45,13-141c-3-68-9-122-16-130
		c-9-11-38-14-120-13c-59,0-113-3-119-7c-13-8-18-235-5-237c5-1,57-3,118-4c60-1,121-5,134-9l24-8l-7-122c-5-87-11-125-22-136
		s-44-16-133-18l-118-4l-6-259c-3-142-8-263-12-269c-7-11-234-14-251-2c-7,4-15,53-19,117c-4,60-12,116-17,122c-7,9-46,13-127,13
		c-78,0-121,4-129,12s-12,51-12,129c0,83-4,120-13,126c-6,4-66,10-132,13l-120,5l-5,260c-4,208-2,265,8,284c14,23,15,23,136,16
		c83-4,126-11,136-21c11-11,14-37,11-122c-2-81,1-111,11-118c8-6,57-8,123-5l110,6l3,370c2,203,0,380-2,391c-9,35-55,47-143,39
		c-43-4-84-12-91-17c-8-7-12-45-12-122c0-61-4-118-9-125c-6-9-25-15-48-15c-457,5-758,3-767-5c-8-6-11-53-11-138l1-128l120-5
		c65-3,126-9,135-13c14-7,16-23,11-120c-2-62-8-117-12-122c-9-11-254-10-272,1c-7,5-9,41-5,119c4,79,3,115-5,123
		c-17,17-222,16-236-1c-9-12-16-100-13-185c2-78-4-82-129-82c-147,0-150-2-150-143c0-61,4-107,11-114s46-9,114-6c96,5,104,4,125-17
		s22-28,18-142c-3-90-8-122-19-128c-8-5-187-8-400-7c-294,1-389-1-401-10c-11-10-15-39-16-125c-2-76-6-114-15-120
		c-16-10-239-10-255,1c-11,7-14,105-14,535c0,471-2,528-16,543c-14,13-33,15-119,10c-84-5-105-3-118,9c-12,13-15,52-15,228
		c0,117-3,233-6,257c-5,35-2,48,13,64c19,19,26,20,129,12c108-8,393-2,403,9c7,7,11,438,4,476c-2,14-12,29-21,33c-27,11-484,7-496-5
		c-5-5-11-60-13-122s-5-119-8-126c-3-9-40-12-139-12c-151,0-151,0-141-74c2-23,1-77-3-121l-7-80l-116,4c-90,2-118,0-130-11
		c-11-11-14-43-14-134v-119l117-1c79-1,122-5,133-14c13-11,15-66,15-415v-402l-132,3c-113,2-134,5-145,20c-10,14-13,101-13,396v377
		l-23,13c-28,16-202,17-218,1c-6-6-13-65-16-132s-10-124-16-128c-5-3-60-6-121-7s-117-5-123-9c-9-6-13-42-13-120c0-62-5-119-10-127
		c-10-15-15-16-176-19l-91-1l-7-118c-5-75-12-122-20-130c-18-19-230-22-248-4c-15,15-21,213-8,248c8,20,15,21,130,22
		c67,0,125,3,128,6c10,11,4,218-7,229c-6,6-63,12-128,14c-64,2-118,5-120,7s-6,55-9,118c-4,83-2,123,8,147l13,33l400,1l400,2l3,111
		c2,94,0,115-14,129c-15,15-43,16-256,14c-294-4-278-11-278,125c0,52-2,100-5,108c-3,7-1,20,5,28c8,13,68,16,401,21
		c344,6,393,9,407,23c13,13,18,41,20,131l4,113l-48,8c-50,7-183,2-374-16c-145-13-140-18-140,145v122l-61,7c-105,11-176,7-192-9
		c-12-11-15-41-15-130c1-64-3-120-8-125c-6-6-63-11-127-11c-76-1-120-5-124-13c-4-6-8-64-9-129s-4-120-7-123s-146-5-319-3
		c-443,3-488,2-503-11c-20-16-17-479,3-502c10-12,33-15,124-11c61,2,115,6,120,9s8,57,7,119c-3,140,2,150,76,140c27-4,82-6,122-6
		c60,2,73-1,81-16c11-21,14-375,4-477l-7-69l-118-3c-64-2-122-6-127-9c-16-10-13-220,3-233c7-7,66-13,133-14l119-3l3-115
		c1-63,0-125-3-137l-5-23h-263c-191,0-266,3-275,12s-12,79-12,254c0,194-3,244-14,253c-9,8-52,11-127,9l-114-3l-2-264
		c-2-203-5-266-15-273c-7-4-64-8-126-7c-76,1-117-3-127-11c-12-10-15-38-15-125c0-88-3-114-14-118c-8-3-126-7-263-8
		c-177-1-255,1-271,10l-22,12l-1,347c0,191-1,365-2,387l-2,40l-122,5c-91,4-126,9-137,20c-12,11-16,43-18,125c-2,89-6,113-20,127
		c-16,16-69,17-805,18c-433,0-793-4-800-8c-18-11-26-252-9-258c7-3,64-6,127-7l114-2v-125v-125l-110-7c-61-4-120-6-132-3
		c-30,7-36,34-36,143c1,90,0,94-24,103c-13,5-66,9-117,9c-75,0-96,3-107,17c-10,11-15,52-17,129c-3,78-8,116-17,124
		c-14,12-188,17-222,6c-19-6-21-17-29-139l-9-132l-123-5c-93-4-125-9-132-20c-6-9-9-119-7-260l2-245l530-5c291-3,536-9,542-13
		c14-9,19-230,7-261c-5-14-50-16-398-16c-292,0-395-3-404-12c-8-8-12-50-12-125c0-97-2-113-18-121c-26-13-213-15-245-3l-27,11v238
		c0,177-3,243-13,256c-18,25-77,35-149,26c-35-4-71-3-80,1c-26,14-30,58-25,309c4,215,6,234,23,247c10,8,28,12,39,9s65-6,120-7
		l100-2l-3,124c-2,94-7,128-18,139c-11,12-41,15-131,15c-138,1-131-7-132,141c-1,63-5,104-13,112c-16,16-210,16-226,0
		c-8-8-12-46-12-104c0-56-5-105-14-125l-14-33h-393c-217-1-400-5-407-9c-9-6-12-70-12-261c0-229-2-254-17-268c-14-11-43-14-130-12
		c-72,1-118-2-127-10c-12-8-16-36-18-116c-2-58,1-111,5-117c6-10,68-13,250-12c133,0,250-2,259-6s19-13,22-21s6-127,7-266
		c0-199-2-253-13-259c-17-11-229-11-246,0c-9,5-14,43-17,121c-2,62-9,118-15,124c-9,9-238,11-247,2c-1-1-3-53-4-114
		c-1-148,3-145-150-139c-66,2-122,7-126,11c-4,3-8,58-9,122c-1,89,2,119,13,130c11,10,43,14,128,14c78,0,116,4,121,12
		c12,18,6,230-7,243c-6,6-59,10-125,10c-86,1-118,4-129,15c-10,11-15,42-16,118c-2,129-2,130-149,128l-105-1l-10-130l-10-130l-123-5
		c-94-4-125-9-133-20c-6-9-9-108-7-258c2-188,0-244-10-251c-7-4-65-8-128-10c-163-3-162-3-156,133c5,104,4,106-19,115
		c-13,5-71,9-127,9c-64,1-109,6-118,13c-11,9-14,39-14,125c0,62-4,115-9,118s-117,8-250,10c-205,4-243,2-256-10c-11-12-15-41-15-124
		c0-98-2-110-19-120c-28-15-254-13-269,2c-8,8-12,51-12,129c0,92-3,119-15,129c-11,9-45,11-120,8c-65-3-108-1-115,6
		c-6,6-10,146-10,403c0,369,1,394,18,411c16,16,37,19,130,21c94,2,112-1,120-15c5-9,7-57,5-108c-2-52,0-97,6-106c8-12,50-14,260-13
		c137,0,254,3,259,7c5,3,10,52,10,110c1,80-3,107-14,117c-10,8-46,10-119,7c-138-6-138-6-139,142c-1,70-5,113-13,121
		c-7,7-54,14-112,17c-80,4-105,1-124-11c-18-11-58-16-158-18c-133-3-134-3-147,21c-8,17-12,59-10,127c1,56-1,105-6,110
		c-14,14-219,21-234,8c-10-9-13-95-14-404c-1-266-5-394-12-399c-6-3-126-7-266-7s-260-3-265-7c-11-7-12-209-1-227c5-7,49-11,126-11
		c68,0,121-4,125-10c3-5,8-65,11-132c2-70,9-125,15-129c6-3,53-4,104-1c101,5,154-7,156-37c1-9,0-66-1-126c-1-81-5-114-16-125
		c-13-13-90-15-547-18l-532-2l-8-118c-4-64-10-123-12-130c-3-8-30-12-87-12c-76,0-152-11-164-23c-3-3-7-56-10-118
		c-2-62-9-118-14-123c-7-7-108-13-270-16c-142-3-261-8-264-11s-9-60-13-128l-8-123l-122-3c-83-2-125,1-132,9c-5,6-11,62-13,124
		c-6,145-8,143,144,145l113,2l5,129l5,130l30,8c16,5,124,8,240,7c115,0,227-1,247,0l38,1v256c0,165,4,263,11,276c10,19,18,20,132,17
		l121-4l6,31c4,16,7,259,8,539c1,336,5,512,11,518s61,10,133,10c107,0,123-3,136-19c11-16,13-55,8-219c-4-110-3-225,1-255l8-55
		l114-3c75-2,118,1,127,9c10,9,14,40,14,124c0,145-2,143,150,147l115,3l3,124c2,91-1,126-10,132c-7,4-63,6-125,3
		c-143-6-143-6-138,149c3,96,1,108-15,117c-11,6-171,10-403,10c-333,0-386,2-397,15c-10,12-13,78-14,259c-1,190-4,247-15,260
		c-12,14-40,16-257,14c-171-2-247-7-255-15c-9-9-11-112-10-399c1-213,4-391,7-395c3-5,60-7,128-5s129,0,136-4c10-6,13-38,11-120
		c-1-74,2-116,10-126c9-10,38-14,120-14c140,0,139,1,139-167c0-67-4-124-8-127c-5-3-120-6-258-7c-137-1-257-6-267-11
		c-15-7-17-24-17-117c0-81-4-111-14-120c-8-7-62-14-123-17c-83-4-111-9-120-22c-9-10-13-53-13-123c0-61-4-111-10-114
		c-5-3-68-8-138-11c-104-4-131-3-140,9c-9,10-13,87-15,260c-1,135-6,249-10,253s-62,8-128,9c-94,0-122,4-129,15c-5,8-10,67-10,131
		c0,92-3,119-15,129c-20,17-208,9-230-10c-14-12-16-44-13-252c3-199,5-240,18-248c8-5,66-10,127-10h113v-274c0-235-2-275-16-286
		c-10-9-48-13-119-13c-74,0-108-3-115-13c-13-14-17-187-6-221c4-11,17-24,30-27c12-3,128-5,256-5c197,1,236-1,245-14
		c14-20,19-211,6-236c-10-18-26-19-276-19c-225,1-267,3-277,16c-9,10-13,52-13,131v116l-123,5c-94,4-125,8-132,20c-5,8-10,63-10,122
		c0,80-4,110-15,121s-42,15-126,16c-66,0-117,5-125,12c-10,8-14,46-16,132l-3,122l-48,8c-26,4-62,4-80-1l-32-8l-5-2490.99h30660
		V42160.34z M28229.05,40798.34c-4,3-9,58-12,123c-5,93-3,119,8,128c8,7,56,12,118,13c145,3,147,1,147-148c0-74-4-115-12-123
		c-9-9-43-11-128-6C28287.05,40789.34,28232.05,40794.34,28229.05,40798.34z M21848.05,40801.34c-15,11-18,32-20,128
		c-1,63,1,121,6,128c10,17,226,17,248-1c20-15,21-19,19-135c-1-123-5-126-136-130
		C21894.05,40789.34,21860.05,40791.34,21848.05,40801.34z M9892.05,41198.34c-2,101,1,136,10,143c18,11,201,10,231-1
		c13-5,27-15,29-23c3-7,3-65-1-128l-6-115l-105-6c-58-3-116-5-130-5l-25,1L9892.05,41198.34z M2684.05,41084.34c-20,26-19,214,0,240
		c13,18,25,19,127,16c63-1,120-7,126-13c15-12,18-203,4-240c-8-22-12-23-126-22C2712.05,41065.34,2696.05,41068.34,2684.05,41084.34
		z M1846.05,41075.34c-3,9-6,69-6,135c0,100,3,121,16,126c9,3,65,6,126,7c139,1,138,3,137-143c0-59-3-112-7-118c-5-8-48-13-122-16
		c-63-1-120-4-126-5C1857.05,41060.34,1849.05,41066.34,1846.05,41075.34z M6290.05,41088.34c-5,11-10,67-10,125
		c0,136,0,136,148,129c59-3,113-10,119-16c18-13,18-228,1-245c-8-8-51-12-130-12
		C6312.05,41069.34,6300.05,41071.34,6290.05,41088.34z M25997.05,41384.34c-9,42-6,209,3,219c11,10,252,8,262-2c7-7,8-50,2-129
		l-9-118l-105-6C25999.05,41340.34,26007.05,41338.34,25997.05,41384.34z M9069.05,41369.34c-13,15-15,39-13,121
		c3,116,14,135,68,125c16-3,68-6,117-6h89v-128c0-71-2-131-4-133c-3-2-58-3-123-1
		C9103.05,41350.34,9083.05,41353.34,9069.05,41369.34z M20172.05,41361.34c-16,16-17,234,0,244c17,11,230,12,250,2
		c16-8,18-24,18-128c0-85-3-120-13-123C20400.05,41345.34,20184.05,41349.34,20172.05,41361.34z M17674.05,41363.34c-3,8-6,61-7,119
		c-3,139-4,137,134,137s138,0,131-143c-2-56-9-108-14-115C17902.05,41342.34,17681.05,41344.34,17674.05,41363.34z
		 M16842.05,41361.34c-8,8-12,50-12,123s4,115,12,123c15,15,221,17,248,2c17-9,19-22,18-123c0-61-5-118-10-125
		C17084.05,41344.34,16859.05,41344.34,16842.05,41361.34z M14902.05,41363.34c-8,5-12,43-12,121c0,103,2,115,19,125
		c29,15,238,13,248-3c4-6,8-63,10-125c2-108,1-113-20-122C15122.05,41348.34,14921.05,41351.34,14902.05,41363.34z
		 M11847.05,41363.34c-10,11-15,44-16,125c-1,96,1,111,16,119c10,5,69,8,132,7c143-4,141-1,141-142c0-125,4-121-152-122
		C11888.05,41349.34,11858.05,41353.34,11847.05,41363.34z M30160.05,41628.34c-5,11-10,64-10,118c0,142,2,144,141,141
		c80-1,112-5,121-15c17-21,15-242-2-253c-7-4-64-9-126-9C30181.05,41609.34,30170.05,41610.34,30160.05,41628.34z
		 M27382.05,41624.34c-8,3-12,35-12,115c0,146,3,150,135,150c67,0,105-5,125-15l30-16v-107c0-114-4-128-35-133
		C27601.05,41613.34,27400.05,41619.34,27382.05,41624.34z M24346.05,41625.34c-14,13-16,52-16,270v254l26,10c16,6,125,9,267,8
		l242-3l11-25c13-32,3-225-13-241c-7-7-48-11-117-10c-135,2-136,1-131-152c3-91,1-108-13-117c-10-5-67-10-129-10
		C24385.05,41609.34,24358.05,41612.34,24346.05,41625.34z M22670.05,41628.34c-5,11-10,60-10,110c0,49-4,101-10,116l-10,26l-111-2
		c-142-3-139-6-139,150c0,64,4,122,9,129c7,11,63,14,267,15l259,2l3,127c2,109,5,129,20,136c9,5,68,12,131,15c63,4,116,8,118,10
		s6,55,10,118c3,65,11,117,17,121c13,9,238,11,260,2c13-5,16-26,16-130c0-92,3-124,12-125c7,0,62,0,123,1c149,1,146,5,133-140
		c-6-63-15-120-22-127c-16-17-220-21-240-4c-12,10-16,40-18,134l-3,122h-130h-130l-5-125c-3-69-9-131-13-138c-6-8-43-12-126-12
		c-90,0-121-3-130-14c-9-10-13-90-14-268l-2-253l-95-6c-52-3-109-6-127-7C22690.05,41610.34,22678.05,41615.34,22670.05,41628.34z
		 M19628.05,41615.34c-16,5-18,19-18,124c0,149,1,150,139,150c129,0,131-2,131-137c0-57-4-112-9-122c-8-14-26-17-118-19
		C19694.05,41610.34,19637.05,41612.34,19628.05,41615.34z M10737.05,41616.34c-15,4-17,18-17,123c0,151-2,150,156,150
		c93,0,113-3,118-16c3-9,6-64,6-124c0-142,1-141-138-139C10803.05,41611.34,10747.05,41613.34,10737.05,41616.34z
		 M10170.05,41628.34c-5,11-10,67-10,124c0,133,1,133-134,130c-56-1-108,2-116,7c-12,7-16,36-18,127c-5,157-7,155,154,151l119-3
		l2-110c4-156,3-155,61-154c85,3,192-7,203-18c6-6,13-62,15-125c4-90,2-117-8-126c-8-6-59-13-114-15c-54-1-109-4-121-5
		C10190.05,41610.34,10177.05,41617.34,10170.05,41628.34z M7400.05,41624.34c-5,3-8,57-6,120c4,155,5,157,144,153
		c70-1,109-6,118-15c8-9,13-45,13-114c1-123-4-147-32-152C7607.05,41611.34,7411.05,41617.34,7400.05,41624.34z M5742.05,41637.34
		c-19,24-17,226,3,242c17,14,223,19,243,6c13-8,18-257,5-269c-3-4-58-4-122-1C5783.05,41620.34,5752.05,41625.34,5742.05,41637.34z
		 M28222.05,41913.34c-34,34-27,217,9,236c29,16,235,18,251,2c9-9,13-47,14-118c3-141,4-140-145-137
		C28263.05,41897.34,28234.05,41901.34,28222.05,41913.34z M21274.05,41902.34c-11,11-5,239,7,253c12,15,223,18,250,4
		c17-10,19-23,19-128c0-66-4-122-10-128C21528.05,41891.34,21286.05,41890.34,21274.05,41902.34z M20737.05,41903.34
		c-15,7-17,23-17,126c0,83,4,121,13,128c17,14,235,18,248,5c11-11,20-202,12-240c-3-12-12-23-21-25
		C20939.05,41891.34,20755.05,41896.34,20737.05,41903.34z M19065.05,41909.34c-13,10-15,53-15,266v254l26,10c14,6,72,10,129,10
		c60,0,106,4,110,10s8,60,10,120s6,114,10,120c9,15,517,14,533-2c8-8,12-50,12-123s-4-115-12-123c-9-9-78-12-243-13
		c-126-1-244-4-260-8l-30-6l-3-255c-2-140-7-259-12-265C19308.05,41889.34,19084.05,41893.34,19065.05,41909.34z M18227.05,41907.34
		c-15,14-17,28-11,121c9,142,7,141,150,141c68,0,115-4,119-11c11-16,13-232,4-251c-8-14-26-17-127-16
		C18272.05,41892.34,18241.05,41895.34,18227.05,41907.34z M17673.05,41911.34c-19,15-12,237,8,248c26,15,226,15,243,1
		c13-11,16-36,16-124c0-146,3-143-142-139C17736.05,41899.34,17680.05,41906.34,17673.05,41911.34z M16291.05,41904.34
		c-6,6-12,61-15,124c-2,65-9,118-16,125c-13,13-234,16-247,3c-4-5-10-65-13-134l-5-126h-123c-96,0-126,3-138,15c-30,30-24,238,8,260
		c7,5,65,8,128,6l115-3l5,123c4,97,9,127,21,135c18,13,788,15,808,3c13-8,15-234,2-254c-6-10-41-14-123-16c-63-1-119-6-125-9
		c-6-4-11-54-12-124c0-87-4-121-14-128C16529.05,41891.34,16303.05,41892.34,16291.05,41904.34z M15169.05,41910.34c-5,8-9,62-9,121
		c0,135,2,138,113,138c45,0,92,3,104,6c14,4,28-1,42-15c19-19,21-33,21-136c0-88-3-116-14-122c-8-4-67-8-131-7
		C15205.05,41895.34,15176.05,41898.34,15169.05,41910.34z M9346.05,41905.34c-13,12-16,38-16,119c0,138,1,136-144,133l-111-3
		l-10-120c-6-66-13-125-17-130c-3-6-56-10-128-9c-94,0-124,4-131,15c-5,8-9,61-9,119c0,149,1,149,135,143c140-8,137-10,134,134
		c-1,62,2,118,7,122c7,8,209,17,261,12c9-1,13-20,13-59c0-33,3-94,7-137l6-78l124,6c108,4,124,3,132-12c14-26,19-229,7-246
		c-8-11-38-15-111-18c-55-1-108-4-117-5S9354.05,41896.34,9346.05,41905.34z M29145.05,42173.34l-90,1l-3,267l-2,267l22,13
		c21,11,113,14,208,6l35-3l5,122c3,67,9,125,13,129c10,10,198,18,230,10c35-8,47-46,47-144c0-48,5-94,10-102c7-11,37-17,115-21
		c76-4,110-10,121-21c22-22,32-219,12-235c-7-6-64-15-126-19c-152-9-152-9-152,137c0,75-4,110-13,116c-20,12-227,17-239,5
		c-7-7-12-103-13-265c-1-139-5-259-9-266c-5-8-20-9-44-5C29252.05,42169.34,29195.05,42172.34,29145.05,42173.34z
		 M27120.05,42179.34c-18,18-20,33-20,135c0,99,2,115,17,123c10,5,69,8,131,8c100-1,115-3,128-20c8-12,11-28,7-40s-6-56-5-100
		c2-114,2-115-121-119c-56-1-105-4-110-5C27143.05,42160.34,27131.05,42168.34,27120.05,42179.34z M25164.05,42199.34
		c-15,44-6,492,10,502c20,13,490,8,516-5l23-12l-1-250c-1-200-4-252-15-260c-9-6-112-10-268-9l-254,1L25164.05,42199.34z
		 M27659.05,42196.34c-13,33-4,222,11,237c14,14,225,13,242-2c11-8,17-42,21-115c5-94,4-104-15-125c-20-20-30-22-135-22h-113
		L27659.05,42196.34z M14055.05,42179.34c-4,6-8,64-8,128c-1,64-6,120-12,124s-123,8-260,8c-138,0-256,4-264,9c-19,12-19,508,1,527
		c23,22,222,23,253,1c15-12,18-29,19-120c1-58,5-109,9-114c5-4,61-7,125-5c65,1,123-2,131-7c10-7,14-40,15-133c1-68,6-129,10-136
		c5-8,40-12,109-12c158,0,147,10,147-139c0-70-3-131-7-134C14312.05,42164.34,14062.05,42168.34,14055.05,42179.34z
		 M11840.05,42195.34c-6,14-8,30-5,34c3,5,1,48-5,96c-6,57-6,92,0,99c14,17,200,28,250,15l40-11l-6-117c-3-64-7-123-10-130
		c-2-9-37-12-129-12h-125L11840.05,42195.34z M25998.05,42463.34c-10,14-5,243,6,253c4,4,62,8,129,8h121l2,122c4,150,9,146-146,139
		c-96-4-110-3-113,12c-3,9-4,72-3,140c1,97,4,125,16,133c23,15,1048,7,1077-9c21-12,22-18,20-117c-3-149-21-140,273-140
		c216,0,241-2,257-18c16-15,18-33,15-140c-2-67-8-126-12-131c-5-5-301-8-672-8c-401,1-669-2-678-8c-12-7-15-33-15-125
		c0-91-3-118-15-125C26240.05,42437.34,26007.05,42449.34,25998.05,42463.34z M12403.05,42451.34c-9,7-13,45-13,124
		c0,103,2,114,20,124c12,7,111,11,261,12c302,2,282,13,280-160c-1-86-3-93-24-102
		C12896.05,42436.34,12418.05,42438.34,12403.05,42451.34z M7675.05,42459.34c-4,6-9,59-12,118c-7,137-10,135,134,133
		c149-2,149-2,151-136c2-58,0-110-3-116C7937.05,42445.34,7683.05,42446.34,7675.05,42459.34z M9631.05,42718.34
		c-16,29-16,518-1,536c11,13,70,15,399,15c294,0,391-3,404-13c20-15,20-25,11-305c-5-150-11-225-19-232c-7-6-159-11-381-13
		c-203-1-377-3-386-5C9648.05,42700.34,9636.05,42707.34,9631.05,42718.34z M27954.05,42718.34c-28,3-33,53-28,274
		c5,275,13,260-140,265c-55,2-107,9-114,14c-18,16-17,254,2,261c20,8,249-2,258-11c4-4,9-61,10-127l3-119l120-1c67-1,126-5,133-9
		c9-5,12-76,12-271c0-219-2-265-14-272C28184.05,42716.34,28001.05,42712.34,27954.05,42718.34z M23774.05,42734.34
		c-10,13-12,29-7,50c4,16,6,66,4,111c-2,57,1,84,11,91c15,13,235,12,255,0c19-12,11-246-9-261c-9-6-60-11-127-11
		C23800.05,42714.34,23787.05,42716.34,23774.05,42734.34z M18539.05,42719.34c-46,13-49,25-42,156l6,103l31,10c17,5,135,10,262,10
		c186,1,234-2,243-13c8-9,11-55,9-137l-3-124l-220-5c-121-3-227-7-235-8S18559.05,42714.34,18539.05,42719.34z M17950.05,42727.34
		c-19,15-22,28-24,107c-4,157,4,165,165,165c65,0,120-3,120-8c1-4,3-64,4-135c2-147,13-135-120-140c-44-2-90-4-101-5
		C17982.05,42710.34,17962.05,42717.34,17950.05,42727.34z M20449.05,42735.34c-17,20-15,230,2,250c14,17,224,20,249,4
		c12-8,14-31,11-127c-1-65-8-124-13-131c-7-8-45-12-123-12C20484.05,42719.34,20460.05,42722.34,20449.05,42735.34z
		 M16290.05,42734.34c-9,10-13,51-14,119c-1,138,2,142,126,144c98,2,148-10,149-37c3-71-1-222-6-231c-4-6-54-10-124-10
		C16327.05,42719.34,16300.05,42722.34,16290.05,42734.34z M22393.05,43014.34c-12,16-13,40-8,125c3,57,11,110,17,117
		c9,11,64,13,255,12c231-1,246-2,265-21c15-15,19-28,14-50c-3-17-6-69-6-117v-87l-261,1
		C22420.05,42994.34,22408.05,42995.34,22393.05,43014.34z M28498.05,43281.34c-4,7-8,63-8,125c0,99,2,113,18,122
		c24,13,210,12,238-1c19-9,20-17,19-123c-1-65-7-120-13-127C28737.05,43259.34,28510.05,43263.34,28498.05,43281.34z
		 M28213.05,44101.34c-13,21-9,236,4,249c15,15,242,13,260-3c9-7,13-44,13-124c0-97-2-114-18-123
		C28446.05,44084.34,28223.05,44086.34,28213.05,44101.34z"/>
	<path class="st0" d="M705.05,43012.34c12,6,15,32,15,122c0,103-2,115-19,125c-25,13-238,13-243,0c-5-14,6-238,12-243
		C479.05,43007.34,690.05,43003.34,705.05,43012.34z"/>
	<path class="st0" d="M11533.05,43291.34c16,10,22,469,7,498c-10,19-19,20-118,18c-102-3-107-4-119-28c-18-35-18-449-1-472
		c10-13,36-17,116-20C11475.05,43285.34,11527.05,43287.34,11533.05,43291.34z"/>
	<path class="st0" d="M400.05,43286.34c19,3,38,10,43,16c4,7,5,114,1,238c-3,124-4,235,0,246c10,32,50,43,161,43c58,0,107,4,110,10
		c10,17,18,145,11,183c-13,69,0,67-382,67h-344v-405v-405l182,2C283.05,43281.34,381.05,43284.34,400.05,43286.34z"/>
	<path class="st0" d="M5988.05,43554.34c4,5,8,66,10,135c1,68,7,129,13,135c5,5,64,12,129,14l120,3v119c0,143,4,139-137,139
		c-54,0-103,4-109,8s-14,58-18,126c-3,65-9,123-13,129c-6,10-193,4-225-8c-15-6-17-22-16-126c1-65-1-121-4-125c-4-3-64-7-133-8
		c-98-2-129-5-136-17c-13-19-8-497,6-515C5488.05,43547.34,5978.05,43538.34,5988.05,43554.34z"/>
	<path class="st0" d="M15696.05,43572.34c11,6,14,33,14,118v109l-28,11c-16,7-66,9-124,6c-127-7-128-6-128,134c0,57-4,110-9,117
		c-11,19-189,29-219,13c-22-12-22-15-22-257c0-187,3-246,12-249C15216.05,43566.34,15681.05,43564.34,15696.05,43572.34z"/>
	<path class="st0" d="M15983.05,43836.34c4,3,7,58,7,120c0,63,5,123,10,134c10,17,22,19,130,19c65,0,121,4,125,10c3,5,6,57,7,115
		c2,83-1,108-13,116c-15,10-460,12-497,3l-22-6v-234c0-128,4-244,10-258c9-26,10-26,123-26
		C15926.05,43829.34,15980.05,43832.34,15983.05,43836.34z"/>
	<path class="st0" d="M1821.05,43845.34c11,13,11,242,0,248c-4,3-61,7-127,10s-127,8-136,11c-15,6-16,29-11,241
		c6,298,12,284-125,284c-53,0-104-4-112-9c-10-7-15-38-17-127c-2-65-8-123-14-130c-8-10-49-14-137-16l-127-3l-3-103
		c-4-144-6-142,129-142c61,0,118-4,128-10c16-8,18-22,14-130c-3-102-1-121,12-126
		C1325.05,43831.34,1811.05,43833.34,1821.05,43845.34z"/>
	<path class="st0" d="M20144.05,43855.34c3,9,6,57,6,109c0,66-4,96-14,104c-9,8-92,12-255,14c-206,2-243,0-251-13
		c-11-16-14-189-4-214c5-14,38-16,259-16S20139.05,43841.34,20144.05,43855.34z"/>
	<path class="st0" d="M21982.05,44108.34c53,3,99,9,102,12s7,57,8,120l3,114l-119,3c-71,2-123-1-129-7c-13-13-17-197-6-229
		c5-13,16-21,26-20S21929.05,44105.34,21982.05,44108.34z"/>
	<path class="st0" d="M26251.05,44116.34c0,5,1,119,3,256c2,198,0,250-11,259c-14,11-215,14-233,3c-5-3-10-43-11-88
		c0-45-4-105-7-132l-7-50l-130-5l-130-5v-120v-120l262-3C26132.05,44110.34,26250.05,44112.34,26251.05,44116.34z"/>
	<path class="st0" d="M11256.05,44121.34c4,7,8,59,8,116c1,126,6,122-153,122h-109l-6,31c-3,17-6,80-6,140v109h-104
		c-58,0-116,4-130,10l-26,10l-1,197c0,109-4,225-8,258c-7,54-5,61,15,82c21,21,32,23,133,23c96,0,110,2,115,17c11,36,4,212-9,223
		c-8,7-103,11-260,12c-205,1-248-1-256-13c-5-8-9-67-9-131c0-106-2-118-19-128c-11-5-67-10-125-10c-70,0-107-4-112-12
		c-11-17-12-210-2-231c8-15,24-17,123-17s116-2,123-18c5-9,9-71,7-136c-2-112-3-120-25-138c-18-14-30-17-49-11c-38,12-160,7-177-7
		c-20-17-20-198,0-226c14-18,28-19,264-19c197,0,252-3,266-14c14-12,16-29,12-119c-3-68-1-111,6-119
		C10757.05,44104.34,11245.05,44103.34,11256.05,44121.34z"/>
	<path class="st0" d="M9041.05,44131.34c8,15,10,53,6,119c-9,143-30,133,280,139c142,3,264,9,270,13c9,6,13,42,13,121
		c0,93,3,116,16,127c11,9,55,16,128,19l111,5l3,252l2,253l-22,5c-13,3-68,5-123,3l-100-3l-3-110c-3-156-1-154-153-154
		c-67,0-123-1-124-3c-2-2-6-59-9-127s-8-126-10-129c-3-2-120-4-261-4c-181,1-261,4-271,13c-10,8-14,38-14,118c0,163-20,152,278,151
		c136,0,253,0,260,0c10,0,12,27,10,117l-3,118l-75,7c-115,11-973,7-988-5c-9-7-12-71-12-258c0-136,4-250,8-253c5-3,55-6,112-7
		c139-3,140-4,140-147c0-59,4-113,8-120c6-8,48-15,128-19c65-3,126-10,135-14c15-7,16-23,12-114c-4-76-2-109,7-120
		c10-12,36-15,121-15C9022.05,44109.34,9030.05,44110.34,9041.05,44131.34z"/>
	<path class="st0" d="M5412.05,44116.34c37,6,43,32,32,146l-9,92h-120h-120v-109c0-77,4-113,13-123
		C5221.05,44109.34,5344.05,44106.34,5412.05,44116.34z"/>
	<path class="st0" d="M4868.05,44121.34c16,16,17,209,0,226c-8,8-50,12-124,12h-112l-5-33c-2-17-4-73-3-122l1-90l115-3
		C4821.05,44109.34,4859.05,44112.34,4868.05,44121.34z"/>
	<path class="st0" d="M25022.05,44374.34c3,3,157,6,342,6l336-1v124c0,99,3,128,16,140c12,13,39,15,133,15c65-1,124,1,130,5
		c14,9,15,232,1,241c-19,12-484,17-513,6l-29-11l4-121c4-146-1-153-91-141c-31,4-135,7-231,7c-236,0-230,4-230-145c0-60,4-111,9-114
		C24913.05,44376.34,25015.05,44367.34,25022.05,44374.34z"/>
	<path class="st0" d="M22346.05,44384.34c19,14,25,209,8,232c-9,14-29,16-110,15c-131-4-133-5-126-144c2-57,6-105,8-107
		C22134.05,44371.34,22334.05,44375.34,22346.05,44384.34z"/>
	<path class="st0" d="M17035.05,44378.34l60,6v110c0,90,3,116,18,138l18,28l117-3l117-3l3,129c1,75,7,135,14,143c8,9,45,13,139,13
		c152,0,141-11,137,145l-3,100h-265h-265l-7-115c-11-173,3-156-140-154c-73,1-128-3-136-9c-10-8-13-42-11-134c1-74-2-128-8-134
		c-7-7-30-7-74,1c-63,12-138,7-172-11c-15-8-17-25-17-124c0-90,3-116,15-122c8-5,67-5,132,0c75,5,135,4,166-3
		C16923.05,44369.34,16935.05,44369.34,17035.05,44378.34z"/>
	<path class="st0" d="M6553.05,44376.34c10,9,8,215-1,231c-15,22-70,31-162,25c-122-8-120-10-118,138c1,83-2,123-11,132
		c-8,8-50,12-129,12h-117v-265v-265l45-7C6119.05,44368.34,6545.05,44367.34,6553.05,44376.34z"/>
	<path class="st0" d="M5665.05,44378.34c38,6,40,8,45,47c9,62,3,183-8,197c-15,18-222,13-233-5c-11-16-12-238-2-239
		C5497.05,44373.34,5632.05,44373.34,5665.05,44378.34z"/>
	<path class="st0" d="M4577.05,44376.34c32,4,33,6,34,51c4,101-3,177-17,191c-9,10-45,16-123,18c-104,3-111,2-121-18
		c-16-30-6-229,12-240C4375.05,44369.34,4514.05,44368.34,4577.05,44376.34z"/>
	<path class="st0" d="M21815.05,44389.34c9,15,6,503-4,513c-13,13-492,9-508-4c-19-16-19-222,1-238c9-8,46-10,122-5
		c139,9,139,9,139-130c0-56,4-106,8-113c4-6,49-14,105-18c53-4,104-9,114-11C21801.05,44380.34,21811.05,44383.34,21815.05,44389.34
		z"/>
	<path class="st0" d="M20415.05,44397.34c3,8,5,184,5,392c0,446,15,405-143,397c-56-3-103-6-105-6c-1-1-2-50-2-111
		c0-106-11-160-34-160c-6,0-27,5-46,10c-42,12-157,2-174-16c-19-19-21-218-1-237c11-12,36-14,122-10l109,6l12-27c7-15,12-69,12-124
		c0-53,4-103,9-110C20191.05,44382.34,20408.05,44378.34,20415.05,44397.34z"/>
	<path class="st0" d="M19575.05,44393.34c8,26,14,222,7,232c-9,15-212,26-232,14c-11-7-16-36-18-110c-6-159-13-151,124-149
		C19529.05,44382.34,19573.05,44386.34,19575.05,44393.34z"/>
	<path class="st0" d="M20978.05,44401.34c14,14,16,196,3,217c-7,11-34,16-102,17c-132,4-135,2-142-89c-3-42-3-94,0-116l6-41h111
		C20928.05,44389.34,20970.05,44393.34,20978.05,44401.34z"/>
	<path class="st0" d="M11808.05,44401.34c7,9,13,52,13,114c3,152-20,141,285,142c141,1,259,3,261,6c9,8,9,211,1,228
		c-8,16-24,18-122,18c-93,0-116,3-127,17c-10,11-15,53-17,132c-3,73-8,119-15,123c-19,12-235,9-242-2c-4-6-7-64-9-130
		c-1-65-4-121-7-125c-3-3-187-7-409-10c-221-2-405-6-407-9c-4-3-7-186-4-231c1-6,94-9,263-8c178,2,266-1,275-9c9-7,13-43,13-129
		c0-69,4-120,10-124s59-9,118-12C11776.05,44387.34,11798.05,44389.34,11808.05,44401.34z"/>
	<path class="st0" d="M7086.05,44400.34c6,9,10,154,9,393v380l-30,8c-32,9-747,4-762-5c-11-7-9-209,1-226c5-7,48-11,120-11
		c88,0,116-3,126-15c7-9,14-60,16-131c2-64,7-120,9-124c3-5,58-7,123-5c154,5,152,6,152-134c0-58,4-113,10-121
		C6873.05,44388.34,7071.05,44381.34,7086.05,44400.34z"/>
	<path class="st0" d="M14318.05,44666.34c15,29,15,225,0,244c-11,15-28,16-127,9c-77-6-117-13-122-22c-5-7-9-64-9-126v-112h109
		c60,0,116-3,124-6C14302.05,44650.34,14312.05,44655.34,14318.05,44666.34z"/>
	<path class="st0" d="M24870.05,44912.34c0,205-3,257-14,266c-9,8-52,11-127,9l-114-3l-6-110c-3-61-3-178,0-260l6-150l127-3l128-3
		V44912.34z"/>
	<path class="st0" d="M24040.05,44666.34c3,162,0,506-5,513c-4,6-59,10-133,10c-70,0-133,4-141,9c-11,7-14,34-12,123
		c2,86-1,117-11,126c-15,12-471,19-500,7c-9-4-18-19-20-33c-5-44,6-200,15-209c5-4,58-7,117-5c154,5,150,8,150-136c0-64,4-122,8-128
		c5-8,45-12,120-11c147,1,144,3,146-140c1-59,5-114,9-121C23792.05,44658.34,24040.05,44653.34,24040.05,44666.34z"/>
	<path class="st0" d="M19309.05,44673.34c8,9,11,52,9,127l-3,114l-119,3c-76,2-123-1-130-8c-14-14-17-221-4-238
		C19077.05,44653.34,19294.05,44654.34,19309.05,44673.34z"/>
	<path class="st0" d="M16535.05,44667.34c11,12,5,220-8,229c-18,15-471,17-497,3c-19-10-20-18-18-122l3-112l257-2
		C16413.05,44662.34,16532.05,44664.34,16535.05,44667.34z"/>
	<path class="st0" d="M7695.05,44669.34l230,5l1,118c1,119,1,119-25,129c-14,5-70,8-123,6c-60-3-101-1-108,6c-6,6-10,58-10,122
		c0,79-4,115-13,121c-19,13-206,7-222-7c-13-11-14-49-10-254c5-217,7-241,23-248c9-3,19-6,22-5S7568.05,44666.34,7695.05,44669.34z"
		/>
	<path class="st0" d="M5161.05,44661.34c0,2,2,58,4,126c2,77,8,128,15,137c10,11,38,15,117,15c145,0,143-2,143,123
		c0,67-4,107-12,115c-9,9-81,12-263,12s-254-3-263-12c-8-8-12-51-12-128s-4-120-12-128s-50-12-125-12c-133,0-125,9-121-145l3-100
		l262-3C5042.05,44660.34,5160.05,44660.34,5161.05,44661.34z"/>
	<path class="st0" d="M987.05,44678.34c10,10,13,41,11,125l-3,111l-70,8c-38,4-155,6-260,5l-190-3l-3-116c-2-91,0-119,12-128
		C506.05,44662.34,969.05,44659.34,987.05,44678.34z"/>
	<path class="st0" d="M15449.05,44936.34c152,2,239,7,248,14c9,8,13,42,13,120v109l-28,11c-27,11-484,5-503-7c-13-7-11-211,1-235
		c6-10,16-18,23-17C15210.05,44933.34,15320.05,44935.34,15449.05,44936.34z"/>
	<path class="st0" d="M14038.05,44937.34c14,9,13,217-1,239c-6,9-42,13-122,13c-99,0-115-2-123-18c-11-22-6-196,7-219
		c8-16,25-19,118-21C13976.05,44930.34,14031.05,44933.34,14038.05,44937.34z"/>
	<path class="st0" d="M12919.05,44942.34c7,7,11,97,11,259c0,225-2,248-18,257c-9,5-65,6-127,2l-110-6l-3-240c-1-132,0-249,2-260
		c5-18,14-20,120-21C12863.05,44932.34,12913.05,44936.34,12919.05,44942.34z"/>
	<path class="st0" d="M1185.05,44937.34c33,2,64,7,69,12c6,6,11,55,12,109c2,79-1,103-13,113c-19,16-180,23-216,9
		c-25-10-27-14-26-68c1-32,4-83,7-113l7-55l50-5C1102.05,44936.34,1152.05,44935.34,1185.05,44937.34z"/>
	<path class="st0" d="M27081.05,44955.34c6,7,7,34,3,61c-3,27-7,76-8,109l-1,59h-120h-120l-3-96c-4-146-7-142,127-143
		C27034.05,44944.34,27075.05,44948.34,27081.05,44955.34z"/>
	<path class="st0" d="M26243.05,44946.34c4,3,7,55,7,114c0,97-2,109-19,119c-21,11-189,14-215,4c-13-5-16-24-16-109
		c0-57,3-110,6-119c5-13,25-16,118-16C26186.05,44939.34,26240.05,44942.34,26243.05,44946.34z"/>
	<path class="st0" d="M23178.05,44947.34c22,3,23,5,20,120l-3,117l-109,3c-64,2-113-2-121-8c-13-11-12-208,2-221
		C22976.05,44950.34,23141.05,44942.34,23178.05,44947.34z"/>
	<path class="st0" d="M19577.05,44951.34c16,21,14,215-2,228c-8,7-54,10-126,8l-114-3l-3-80c-2-44,0-99,3-123l6-42h113
		C19533.05,44939.34,19570.05,44943.34,19577.05,44951.34z"/>
	<path class="st0" d="M19038.05,45061.34l-3,123l-100,3c-154,4-145,11-145-116c0-71,4-112,12-120s51-12,125-12h114
		L19038.05,45061.34z"/>
	<path class="st0" d="M3485.05,44947.34c3,3,5,54,5,113c0,75-4,110-13,116c-16,10-489,5-500-6c-15-15-14-198,1-213
		c10-10,71-13,257-14C3370.05,44943.34,3482.05,44944.34,3485.05,44947.34z"/>
	<path class="st0" d="M420.05,44951.34c24,9,32,51,28,153l-3,80l-223,3l-222,2v-120c0-88,3-121,12-122
		C48.05,44942.34,404.05,44945.34,420.05,44951.34z"/>
	<path class="st0" d="M22644.05,44957.34c10,17-1,203-13,215c-15,15-200,22-221,8c-12-8-15-32-15-103c1-135-6-128,129-128
		C22587.05,44949.34,22641.05,44953.34,22644.05,44957.34z"/>
	<path class="st0" d="M20982.05,44965.34c2,9,1,120-2,246c-6,278,2,263-140,254c-52-4-98-10-103-15c-4-4-6-117-5-252l3-244l122-3
		C20964.05,44949.34,20979.05,44950.34,20982.05,44965.34z"/>
	<path class="st0" d="M26770.05,45208.34l45,6l1,107c1,78-2,110-12,118c-16,14-212,14-228,1c-15-13-12-209,3-224
		C26592.05,45203.34,26704.05,45198.34,26770.05,45208.34z"/>
	<path class="st0" d="M24282.05,45207.34c21,4,20-1,23,125c1,75-1,100-13,109c-15,13-205,19-223,7c-13-7-15-217-3-228
		C24075.05,45211.34,24252.05,45200.34,24282.05,45207.34z"/>
	<path class="st0" d="M19315.05,45207.34c10,11,5,241-6,248c-6,3-61,6-122,6c-139-1-139-1-136-127c4-136-5-128,137-130
		C19255.05,45203.34,19312.05,45204.34,19315.05,45207.34z"/>
	<path class="st0" d="M17065.05,45208.34l30,6l1,105c0,58-4,111-9,117c-7,9-44,13-123,13h-114l-6-26c-12-48,4-198,23-212
		C16885.05,45198.34,17010.05,45196.34,17065.05,45208.34z"/>
	<path class="st0" d="M15977.05,45205.34c17,7,18,240,2,250c-20,12-220,7-232-5c-14-14-20-210-7-232c7-10,36-15,117-16
		C15916.05,45201.34,15971.05,45202.34,15977.05,45205.34z"/>
	<path class="st0" d="M15153.05,45206.34c13,12,8,241-5,249c-19,12-242,4-250-9c-3-6-6-60-6-119c1-94,4-110,19-119
		C14931.05,45198.34,15143.05,45195.34,15153.05,45206.34z"/>
	<path class="st0" d="M13752.05,45210.34c15,8,17,25,16,114c-1,72-5,108-14,116c-15,12-217,20-235,8c-16-9-13-230,3-240
		C13540.05,45197.34,13733.05,45198.34,13752.05,45210.34z"/>
	<path class="st0" d="M12375.05,45210.34c6,8,9,63,7,127c-3,110-4,113-28,122c-37,14-207,13-222-2c-18-18-16-222,2-237
		c8-7,63-15,123-18C12343.05,45197.34,12367.05,45199.34,12375.05,45210.34z"/>
	<path class="st0" d="M5703.05,45207.34c3,4,6,55,6,113c1,75-3,109-12,117c-20,17-217,19-227,2c-5-7-9-60-9-116c-1-92,1-104,18-114
		C5501.05,45198.34,5696.05,45195.34,5703.05,45207.34z"/>
	<path class="st0" d="M1820.05,45213.34c6,6,10,58,10,118c0,92-2,108-18,115c-9,5-61,7-115,5c-79-3-98-6-105-20c-4-9-5-64-2-122
		l5-105h108C1762.05,45204.34,1815.05,45208.34,1820.05,45213.34z"/>
	<path class="st0" d="M25133.05,45216.34c4,3,7,52,7,108c0,76-4,106-14,114c-9,8-51,11-122,9l-109-3l-1-100c-2-146-12-135,120-135
		C25076.05,45209.34,25130.05,45212.34,25133.05,45216.34z"/>
	<path class="st0" d="M16427.05,45216.34c77,3,94,7,102,22c12,21,12,179,0,202c-7,14-25,16-120,13c-78-2-115-7-120-16
		c-5-7-7-55-6-106c2-80,5-96,21-108c11-8,22-13,25-12S16377.05,45215.34,16427.05,45216.34z"/>
	<path class="st0" d="M14594.05,45227.34c13,40,11,211-2,224c-10,10-71,13-258,13c-232,0-246-1-260-19c-16-23-20-170-4-210l10-26
		h254C14573.05,45209.34,14589.05,45210.34,14594.05,45227.34z"/>
	<path class="st0" d="M4583.05,45217.34c9,2,17,7,18,10c6,58,5,192-2,209c-8,22-13,23-118,23c-75,0-112-4-118-13c-6-6-9-54-8-105
		c3-123,7-127,124-127C4527.05,45214.34,4574.05,45215.34,4583.05,45217.34z"/>
	<path class="st0" d="M30398.05,45231.34c15,19,19,195,4,210c-9,9-147,15-222,9c-7-1-10-41-8-114l3-112l106-3
		C30358.05,45219.34,30390.05,45222.34,30398.05,45231.34z"/>
	<path class="st0" d="M22074.05,45235.34c12,32,7,201-7,213c-21,17-469,10-490-7c-12-10-16-34-16-99c-1-133-22-123,263-123
		C22037.05,45219.34,22069.05,45221.34,22074.05,45235.34z"/>
	<path class="st0" d="M12660.05,45737.34c0,237-2,271-16,276c-24,9-217,7-232-3c-11-6-13-56-12-227c1-247,5-292,29-297
		c9-2,43-5,76-6c33,0,81-4,107-7l48-6V45737.34z"/>
	<path class="st0" d="M19373.05,45486.34c3,2,52,5,108,6l103,2l-1,106c0,58-3,111-7,118c-5,7-47,11-120,11h-114l-6-31
		c-8-40-8-123,0-171C19342.05,45493.34,19360.05,45473.34,19373.05,45486.34z"/>
	<path class="st0" d="M16250.05,45504.34c5,14,9,68,9,121c0,88-2,96-22,103c-34,13-232-1-231-17c1-6,2-62,2-122l2-110h115
		C16239.05,45479.34,16241.05,45479.34,16250.05,45504.34z"/>
	<path class="st0" d="M14781.05,45486.34c102,4,99,0,99,134c0,60-4,90-13,98c-15,12-217,19-235,7c-12-7-14-207-3-224
		C14638.05,45487.34,14685.05,45483.34,14781.05,45486.34z"/>
	<path class="st0" d="M23194.05,45501.34c3,7,7,56,10,110c4,70,2,99-7,106c-13,11-223,20-233,10c-9-10-11-201-2-221
		c8-15,24-17,119-17C23160.05,45489.34,23192.05,45492.34,23194.05,45501.34z"/>
	<path class="st0" d="M20694.05,45497.34c2,4,6,58,7,120c3,87,0,115-10,122c-18,11-212,0-229-13c-16-13-17-208,0-225
		C20475.05,45488.34,20686.05,45484.34,20694.05,45497.34z"/>
	<path class="st0" d="M12098.05,45503.34c3,6,5,56,4,111c-2,77-7,103-19,112c-17,13-200,12-221-1c-17-11-16-210,1-224
		C11880.05,45486.34,12089.05,45489.34,12098.05,45503.34z"/>
	<path class="st0" d="M11246.05,45501.34c9,14,9,212,0,226c-5,8-44,12-121,12c-94,0-114-3-119-16c-9-22-7-207,2-220
		S11238.05,45488.34,11246.05,45501.34z"/>
	<path class="st0" d="M9775.05,45498.34l90,6l3,107c3,130,6,127-134,125l-99-2v-105c0-87,2-107,17-122c10-10,21-17,25-16
		C9682.05,45492.34,9725.05,45495.34,9775.05,45498.34z"/>
	<path class="st0" d="M8753.05,45501.34c13,8,20,198,7,218c-8,13-48,15-248,17c-131,1-245-2-252-7c-10-6-13-34-11-117
		c1-59,4-110,7-112C8263.05,45493.34,8741.05,45493.34,8753.05,45501.34z"/>
	<path class="st0" d="M6152.05,45496.34l108,4v113c0,95-3,115-16,120c-25,10-180,7-208-4c-26-9-26-11-26-113c0-94,9-133,29-125
		C6043.05,45492.34,6093.05,45495.34,6152.05,45496.34z"/>
	<path class="st0" d="M4867.05,45502.34c9,15,14,200,5,214c-11,17-219,20-235,4c-8-8-11-43-9-113c2-56,5-105,8-109
		C4644.05,45485.34,4859.05,45489.34,4867.05,45502.34z"/>
	<path class="st0" d="M4037.05,45507.34c10,10,13,69,13,262c0,188,3,251,12,257c7,4,56,6,109,5s108,2,122,7c27,10,27,11,27,120
		c0,61-4,113-10,116c-5,3-118,8-250,10c-204,3-242,1-255-11c-11-12-15-40-15-123c0-70-4-111-12-119c-9-9-112-12-404-12
		c-308,0-394-3-402-13c-13-15-13-209-1-229c7-10,92-13,402-14c216,0,401-3,410-7c14-5,15-21,10-115c-8-149-11-146,123-147
		C3992.05,45494.34,4027.05,45498.34,4037.05,45507.34z"/>
	<path class="st0" d="M985.05,45499.34c6,10,9,216,3,226c-7,11-208,11-226,0c-13-8-17-193-4-213
		C765.05,45501.34,979.05,45489.34,985.05,45499.34z"/>
	<path class="st0" d="M18203.05,45505.34c4,4,7,51,7,105c0,130,0,131-139,127l-106-3v-115v-115l116-3
		C18144.05,45500.34,18199.05,45502.34,18203.05,45505.34z"/>
	<path class="st0" d="M17643.05,45505.34c4,4,7,56,7,115v107l-38,7c-37,6-189-2-203-11c-4-2-7-53-6-112l2-107l116-3
		C17584.05,45500.34,17639.05,45502.34,17643.05,45505.34z"/>
	<path class="st0" d="M7372.05,45746.34c2,137,1,254,0,260c-3,9-33,12-110,10c-59-1-112-5-117-9c-12-7-13-477-1-496
		c5-8,41-12,116-12h109L7372.05,45746.34z"/>
	<path class="st0" d="M2940.05,45609.34c0,94-2,111-18,118c-9,5-58,10-109,11c-119,2-123-2-123-115c0-126-2-124,135-124h115
		V45609.34z"/>
	<path class="st0" d="M30660.05,45889.34v131l-103-3l-102-3l-3-114c-2-75,1-118,9-127c8-10,37-14,105-14h94V45889.34z"/>
	<path class="st0" d="M26130.05,45766.34c52,2,99,8,104,13c11,11,15,205,5,221c-7,12-191,23-221,13c-16-5-18-18-18-118
		c0-103,9-142,29-134C26033.05,45762.34,26078.05,45765.34,26130.05,45766.34z"/>
	<path class="st0" d="M20418.05,45771.34c8,8,12,49,12,120c0,107,0,109-26,118c-32,13-194,13-214,0c-11-7-14-33-14-117
		c0-59,3-114,7-121C20194.05,45754.34,20401.05,45754.34,20418.05,45771.34z"/>
	<path class="st0" d="M18473.05,45766.34c4,3,7,55,7,114c0,131,3,129-138,128c-80,0-102-4-106-16c-11-29-6-209,6-221
		C18255.05,45758.34,18461.05,45753.34,18473.05,45766.34z"/>
	<path class="st0" d="M10990.05,45878.34c0,99-3,120-16,125c-9,3-60,6-114,6c-84,0-101-3-109-18c-12-24-14-174-1-206
		c9-26,10-26,125-26h115V45878.34z"/>
	<path class="st0" d="M7906.05,45767.34c26,17,31,48,22,142s-7,155,8,279c6,56,5,66-11,77c-25,19-218,20-232,1c-5-7-9-112-9-243
		c1-179,4-235,15-248s32-16,105-16C7854.05,45759.34,7900.05,45763.34,7906.05,45767.34z"/>
	<path class="st0" d="M5995.05,45776.34c7,19,5,148-3,201l-4,32h-113c-94,0-114-3-119-16c-3-9-6-58-6-109s3-100,6-109
		c5-13,25-16,119-16C5973.05,45759.34,5989.05,45761.34,5995.05,45776.34z"/>
	<path class="st0" d="M28469.05,45783.34c16,19,7,206-10,217c-22,13-203,11-217-3c-17-17-16-202,0-216
		C28260.05,45767.34,28457.05,45769.34,28469.05,45783.34z"/>
	<path class="st0" d="M26797.05,45781.34c4,7,9,55,10,105c3,87,2,93-20,107c-27,17-184,28-209,15c-16-8-18-24-18-112
		c0-67,4-107,12-115C26589.05,45764.34,26786.05,45765.34,26797.05,45781.34z"/>
	<path class="st0" d="M22626.05,45784.34c8,6,15,46,19,101c6,74,5,93-8,106c-19,18-196,27-387,19l-125-6l-3-101c-2-77,1-104,11-113
		C22151.05,45775.34,22607.05,45769.34,22626.05,45784.34z"/>
	<path class="st0" d="M21238.05,45782.34c6,7,13,53,16,101c5,119-2,126-122,126c-55,0-94-5-104-13c-12-9-19-36-23-99
		c-10-130-14-125,114-127C21198.05,45769.34,21230.05,45772.34,21238.05,45782.34z"/>
	<path class="st0" d="M15409.05,45783.34c8,9,11,51,9,122l-3,109l-105,3c-58,1-112-2-120-8c-11-7-16-33-19-100
		c-5-146-10-140,118-140C15370.05,45769.34,15401.05,45773.34,15409.05,45783.34z"/>
	<path class="st0" d="M1540.05,45784.34c19,23,19,213,0,225c-8,6-65,9-125,8l-110-3l-3-109c-1-70,2-113,9-122
		C1328.05,45762.34,1523.05,45763.34,1540.05,45784.34z"/>
	<path class="st0" d="M27260.05,46036.34c58,3,97,8,102,16c9,14,4,200-6,215c-11,18-210,16-225-2c-16-19-16-203,0-222
		c6-8,17-13,23-12S27208.05,46035.34,27260.05,46036.34z"/>
	<path class="st0" d="M20694.05,46036.34c12,12,7,218-6,231c-8,8-48,12-113,12s-105-4-113-12s-12-48-12-115c0-87,3-104,17-111
		C20488.05,46031.34,20684.05,46026.34,20694.05,46036.34z"/>
	<path class="st0" d="M15148.05,46037.34c9,6,12,38,10,123l-3,114l-116,3c-85,2-119-1-127-10c-7-9-8-38-2-85c4-39,5-84,2-99
		c-8-43,17-54,127-54C15092.05,46029.34,15141.05,46033.34,15148.05,46037.34z"/>
	<path class="st0" d="M14492.05,46036.34l96,4l1,113c1,95-1,115-15,120c-31,12-211,7-221-7c-5-6-10-58-12-114c-2-93,0-103,18-112
		c11-6,23-10,28-9C14391.05,46032.34,14439.05,46035.34,14492.05,46036.34z"/>
	<path class="st0" d="M12909.05,46038.34c18,12,19,205,1,226c-11,13-35,15-124,13l-111-3l-3-100c-4-154-11-145,116-145
		C12847.05,46029.34,12901.05,46033.34,12909.05,46038.34z"/>
	<path class="st0" d="M1826.05,46039.34c5,5,9,55,7,119c-3,140,6,155,94,158c32,1,65,3,73,4s28-1,45-4c53-12,59,0,57,119
		c-1,60-7,113-12,118c-14,14-478,18-502,5c-17-9-18-30-16-256c1-183,5-249,15-258
		C1602.05,46028.34,1810.05,46023.34,1826.05,46039.34z"/>
	<path class="st0" d="M110.05,46038.34l45,6l3,114c2,75-1,118-9,127c-8,10-34,14-80,14h-69v-129
		C0.05,46016.34-5.95,46023.34,110.05,46038.34z"/>
	<path class="st0" d="M25408.05,46054.34c9,14,11,214,3,219c-4,3-55,6-115,7c-85,3-109,0-116-11c-13-20-13-172,0-205
		c10-25,10-25,116-23C25355.05,46042.34,25404.05,46048.34,25408.05,46054.34z"/>
	<path class="st0" d="M23746.05,46052.34c2,7,3,60,2,118l-3,104l-117,3l-117,3l-7-27c-8-30,0-187,10-203
		C23525.05,46033.34,23739.05,46035.34,23746.05,46052.34z"/>
	<path class="st0" d="M16815.05,46061.34c3,13,4,66,3,118l-3,95l-99,5c-141,7-141,7-140-111c0-52,3-102,7-112c5-15,22-17,116-17
		C16805.05,46039.34,16810.05,46040.34,16815.05,46061.34z"/>
	<path class="st0" d="M2371.05,46046.34c6,39,3,212-3,225c-8,15-23,18-111,18c-56,0-108-4-115-8c-9-6-12-38-10-123l3-114l117-3
		C2317.05,46040.34,2371.05,46042.34,2371.05,46046.34z"/>
	<path class="st0" d="M30121.05,46335.34c8,10,11,49,10,112c-2,124-3,126-130,119c-51-3-98-10-103-15s-10-58-11-118l-2-109l112-2
		C30084.05,46321.34,30112.05,46324.34,30121.05,46335.34z"/>
	<path class="st0" d="M29023.05,46326.34c4,3,7,52,7,108c0,80-3,105-15,115c-20,17-201,15-221-1c-18-15-20-199-2-217
		C28805.05,46318.34,29011.05,46313.34,29023.05,46326.34z"/>
	<path class="st0" d="M27906.05,46332.34c2,7,3,60,2,118l-3,104h-115h-115l-3-118l-3-117h116
		C27871.05,46319.34,27902.05,46322.34,27906.05,46332.34z"/>
	<path class="st0" d="M26797.05,46332.34c4,6,9,117,11,246c3,216,2,236-14,248c-21,15-201,18-223,4c-12-8-15-33-13-113
		c0-57-4-115-9-129l-10-26l-114,1c-81,1-118-3-127-12c-16-16-21-201-5-220C26306.05,46314.34,26787.05,46316.34,26797.05,46332.34z"
		/>
	<path class="st0" d="M23189.05,46332.34c7,7,11,54,11,113c0,78-3,104-15,114c-18,15-209,10-225-6c-12-12-18-209-7-220
		C22965.05,46320.34,23177.05,46320.34,23189.05,46332.34z"/>
	<path class="st0" d="M19310.05,46344.34c12,32,10,187-2,202s-204,18-226,4c-16-10-26-184-12-210c8-15,25-18,120-19
		C19298.05,46321.34,19301.05,46321.34,19310.05,46344.34z"/>
	<path class="st0" d="M16244.05,46331.34c22,12,24,199,2,217c-9,8-51,11-122,9l-109-3l-8-83c-4-46-3-98,1-115l8-32l106-1
		C16180.05,46322.34,16235.05,46326.34,16244.05,46331.34z"/>
	<path class="st0" d="M13749.05,46334.34c5,5,8,117,9,247c0,193-2,239-14,249c-17,14-199,8-214-7c-7-7-9-98-8-255l3-244h108
		C13694.05,46324.34,13745.05,46328.34,13749.05,46334.34z"/>
	<path class="st0" d="M12086.05,46332.34c2,7,3,60,2,118l-3,104l-58,7c-31,4-83,4-115,0l-57-7v-115v-115l113-3
		C12055.05,46319.34,12082.05,46321.34,12086.05,46332.34z"/>
	<path class="st0" d="M7369.05,46332.34c18,18,14,192-5,211c-13,14-50,16-253,16c-192,0-241-3-250-14c-8-9-11-50-9-117l3-103l251-2
		C7282.05,46321.34,7361.05,46324.34,7369.05,46332.34z"/>
	<path class="st0" d="M3199.05,46332.34c18,18,14,202-4,217c-9,7-50,13-104,14c-117,1-123-4-128-116c-6-134-12-127,116-126
		C3144.05,46321.34,3193.05,46326.34,3199.05,46332.34z"/>
	<path class="st0" d="M988.05,46436.34l-3,118h-115h-115v-115v-115l118-3l118-3L988.05,46436.34z"/>
	<path class="st0" d="M29837.05,46586.34c11,2,24,14,27,26c2,12,6,124,7,249c1,177-1,231-12,244s-31,15-114,12c-67-2-108-8-118-17
		c-14-11-17-33-17-120c-1-146,1-145-145-146c-63-1-117-3-119-6c-11-11-17-196-7-222l11-27l232,1
		C29710.05,46581.34,29825.05,46584.34,29837.05,46586.34z"/>
	<path class="st0" d="M25947.05,46590.34l32,9l-3,111c-3,61-6,112-8,114c-6,7-217,9-223,3c-4-4-9-54-11-112c-5-133-2-136,104-135
		C25880.05,46580.34,25929.05,46585.34,25947.05,46590.34z"/>
	<path class="st0" d="M22903.05,46591.34c15,11,18,31,21,107c4,131,2,133-139,129l-110-3l-3-109c-1-60,1-113,6-118s53-11,108-14
		C22861.05,46578.34,22889.05,46580.34,22903.05,46591.34z"/>
	<path class="st0" d="M28461.05,46616.34c6,17,9,114,7,252l-3,225l-25,7c-32,9-173,11-194,3c-14-5-16-37-16-254s2-249,16-254
		c9-3,58-6,110-6C28450.05,46589.34,28451.05,46589.34,28461.05,46616.34z"/>
	<path class="st0" d="M21150.05,46598.34l105,6l3,104c2,67-1,108-9,117c-8,10-38,14-109,14c-54,0-105-3-114-6c-13-5-16-25-16-119
		s3-114,16-119c9-3,16-5,17-4S21092.05,46595.34,21150.05,46598.34z"/>
	<path class="st0" d="M17340.05,46598.34c24,7,25,9,28,114l3,107l-28,11c-31,12-191,2-209-12c-15-12-15-184,0-203
		C17146.05,46600.34,17298.05,46587.34,17340.05,46598.34z"/>
	<path class="st0" d="M15407.05,46596.34c18,6,18,229,1,239c-6,4-57,6-112,5c-80-2-104-5-114-18c-14-20-17-190-3-212
		c7-11,35-15,113-16C15349.05,46593.34,15401.05,46594.34,15407.05,46596.34z"/>
	<path class="st0" d="M10697.05,46602.34c7,11,11,197,5,214c-6,19-64,26-147,18c-57-5-78-11-85-24c-5-11-6-59-2-117l7-99h108
		C10643.05,46593.34,10694.05,46597.34,10697.05,46602.34z"/>
	<path class="st0" d="M10144.05,46596.34c3,4,6,55,6,115c0,129,6,123-128,123c-71,0-95-4-102-15c-6-8-9-62-8-120l3-105l111-2
		C10088.05,46591.34,10141.05,46593.34,10144.05,46596.34z"/>
	<path class="st0" d="M26475.05,46866.34c22,3,45,9,52,14c18,15,12,208-7,219c-8,4-62,7-120,6l-105-1v-120v-120l70-1
		C26403.05,46862.34,26453.05,46864.34,26475.05,46866.34z"/>
	<path class="st0" d="M21521.05,46875.34c5,7,8,61,7,120l-3,109l-103,3c-56,1-110-2-120-7c-16-9-19-25-20-115c-2-96,0-106,18-116
		C21326.05,46855.34,21508.05,46860.34,21521.05,46875.34z"/>
	<path class="st0" d="M19569.05,46868.34c11,7,14,34,13,116c0,58-3,110-7,113c-12,12-208,12-222,0c-14-11-19-190-7-222
		c5-13,24-16,108-16C19509.05,46859.34,19561.05,46863.34,19569.05,46868.34z"/>
	<path class="st0" d="M18410.05,46867.34l65,7l3,107c2,94,1,108-15,116c-25,12-489,16-497,4c-7-12-12-219-5-226
		C17970.05,46866.34,18337.05,46860.34,18410.05,46867.34z"/>
	<path class="st0" d="M15154.05,46875.34c12,31,7,212-6,220c-20,13-211,14-225,2c-17-14-18-209-1-226c8-8,49-12,119-12
		C15129.05,46859.34,15149.05,46862.34,15154.05,46875.34z"/>
	<path class="st0" d="M12640.05,46869.34c14,9,23,209,10,225c-19,23-225,22-234-1c-11-29-7-212,5-220
		C12435.05,46865.34,12628.05,46861.34,12640.05,46869.34z"/>
	<path class="st0" d="M12028.05,46867.34c30,2,55,8,58,15c2,7,6,55,7,106c2,88,0,95-21,109c-30,20-209,13-223-8c-5-8-8-60-7-115
		l3-100l65-5C11946.05,46866.34,11999.05,46865.34,12028.05,46867.34z"/>
	<path class="st0" d="M27636.05,46881.34c12,19,7,199-6,212c-16,16-205,15-222-2c-9-9-13-43-13-100c-1-132-11-122,121-122
		C27592.05,46869.34,27631.05,46873.34,27636.05,46881.34z"/>
	<path class="st0" d="M19030.05,46876.34c6,99,3,209-5,220s-34,13-120,11l-110-3v-105c0-58,4-111,9-118
		C18813.05,46868.34,19030.05,46863.34,19030.05,46876.34z"/>
	<path class="st0" d="M11253.05,46875.34c4,4,7,54,7,110c0,125,1,124-127,124c-124,0-124-1-121-130l3-105l116-3
		C11194.05,46870.34,11249.05,46872.34,11253.05,46875.34z"/>
	<path class="st0" d="M8203.05,46876.34c13,12,8,210-6,220c-15,13-487,17-505,5c-9-6-12-37-10-118l3-109l256-3
		C8081.05,46870.34,8199.05,46872.34,8203.05,46876.34z"/>
	<path class="st0" d="M6257.05,46881.34c4,7,9,57,9,111c2,83-1,99-15,107c-22,11-212,17-228,7c-9-6-11-36-8-113c3-58,7-110,11-115
		C6035.05,46864.34,6247.05,46867.34,6257.05,46881.34z"/>
	<path class="st0" d="M5698.05,46881.34c16,20,15,203-2,217c-9,8-50,11-117,9l-104-3v-115v-115l106-3
		C5658.05,46869.34,5690.05,46872.34,5698.05,46881.34z"/>
	<path class="st0" d="M5154.05,46885.34c11,30,7,202-6,210c-6,4-58,8-114,10c-79,1-106-1-115-12c-8-10-10-42-5-111
		c4-53,9-100,12-104c3-5,54-9,114-9C5129.05,46869.34,5149.05,46872.34,5154.05,46885.34z"/>
	<path class="st0" d="M428.05,46881.34c16,16,17,199,0,216s-212,16-225-1c-6-6-10-59-9-117l1-105l110-3
		C382.05,46869.34,419.05,46872.34,428.05,46881.34z"/>
	<path class="st0" d="M29485.05,47138.34c105,7,102,4,104,138c1,58-3,86-13,96c-17,17-178,30-211,17c-24-9-35-58-35-159
		c0-83,7-101,39-99C29383.05,47132.34,29435.05,47135.34,29485.05,47138.34z"/>
	<path class="st0" d="M25402.05,47146.34c19,23,14,201-7,222c-11,12-40,16-111,17c-81,1-96-2-105-17c-11-21-12-199-1-215
		c4-6,53-14,109-17C25373.05,47131.34,25390.05,47132.34,25402.05,47146.34z"/>
	<path class="st0" d="M23375.05,47146.34c43,2,85,9,92,15c9,7,13,41,13,109c0,94-1,100-23,108c-36,14-207,7-216-8c-5-7-9-54-9-103
		c0-75,4-94,19-109c11-11,25-18,31-17C23289.05,47142.34,23331.05,47145.34,23375.05,47146.34z"/>
	<path class="st0" d="M16475.05,47148.34l50,6l6,95c3,52,2,103-3,113c-14,28-46,34-143,28l-90-6l-8-93c-10-130-2-147,78-148
		C16398.05,47142.34,16447.05,47144.34,16475.05,47148.34z"/>
	<path class="st0" d="M14310.05,47147.34c6,2,10,49,10,118v114h-114c-79,0-117-4-124-13c-14-17-10-193,5-208
		C14099.05,47146.34,14281.05,47138.34,14310.05,47147.34z"/>
	<path class="st0" d="M13380.05,47146.34c46,2,90,9,97,15c19,15,18,191-1,207c-9,8-51,11-122,9l-109-3l-3-101c-2-83,0-105,13-118
		c9-9,22-15,28-14C13290.05,47142.34,13333.05,47145.34,13380.05,47146.34z"/>
	<path class="st0" d="M9317.05,47152.34c6,11,6,227,0,234c-2,1-52,3-112,4c-134,1-135,1-135-121s2-124,134-127
		C9278.05,47140.34,9311.05,47143.34,9317.05,47152.34z"/>
	<path class="st0" d="M2095.05,47160.34c12,18,12,189,1,205c-9,12-34,14-121,12l-110-3l-5-95c-3-52-2-103,2-113c8-15,24-17,118-17
		C2046.05,47149.34,2091.05,47153.34,2095.05,47160.34z"/>
	<path class="st0" d="M29750.05,47409.34l105,5l3,110c2,95,0,111-15,122c-23,17-204,18-221,1c-8-8-12-49-12-120c0-93,2-108,17-115
		C29637.05,47408.34,29692.05,47406.34,29750.05,47409.34z"/>
	<path class="st0" d="M16256.05,47421.34c12,18,14,211,3,225c-10,11-224,11-236-1c-3-3-7-54-9-113c-3-78-1-109,9-115
		C16043.05,47404.34,16248.05,47407.34,16256.05,47421.34z"/>
	<path class="st0" d="M11815.05,47420.34c10,16,3,219-8,226c-20,12-216,13-223,1c-12-20-12-217,0-228
		C11596.05,47409.34,11809.05,47410.34,11815.05,47420.34z"/>
	<path class="st0" d="M9037.05,47417.34c8,5,12,41,11,115c0,93-3,109-19,117c-21,12-199,13-217,2c-9-6-12-38-10-123l3-114l110-3
		C8975.05,47410.34,9030.05,47412.34,9037.05,47417.34z"/>
	<path class="st0" d="M4587.05,47421.34c6,7,9,57,8,112c-2,123-5,126-125,126c-100,0-126-12-112-50c5-14,7-60,4-104c-4-60-2-80,9-87
		C4393.05,47404.34,4576.05,47407.34,4587.05,47421.34z"/>
	<path class="st0" d="M4027.05,47417.34c16,10,24,217,9,232c-13,13-191,13-216,0c-17-9-19-21-17-113c2-56,6-108,10-115
		C3822.05,47407.34,4006.05,47404.34,4027.05,47417.34z"/>
	<path class="st0" d="M25971.05,47421.34c1,2,2,52,3,111c1,72-3,112-10,118c-7,5-61,8-120,7l-109-3v-105c0-58,3-111,8-118
		c7-8,43-12,118-12C25921.05,47419.34,25970.05,47420.34,25971.05,47421.34z"/>
	<path class="st0" d="M30362.05,47697.34l48,3v103c0,66-4,106-12,114c-14,14-214,17-222,4c-9-15-10-202,0-211
		C30187.05,47700.34,30297.05,47692.34,30362.05,47697.34z"/>
	<path class="st0" d="M28370.05,47696.34c117,6,110-2,110,118c0,104,0,106-26,115c-39,15-199,13-212-3c-7-8-11-55-10-116
		c1-99,2-103,25-112c14-5,30-8,36-7C28300.05,47692.34,28334.05,47694.34,28370.05,47696.34z"/>
	<path class="st0" d="M23445.05,47696.34c11,3,22,9,25,13c3,5,5,55,4,111c0,122,6,116-135,118c-62,1-90-3-98-13c-6-7-10-46-10-93
		c1-44-1-85-4-90c-4-6,0-19,8-29c11-16,28-19,102-21C23385.05,47691.34,23434.05,47693.34,23445.05,47696.34z"/>
	<path class="st0" d="M22605.05,47696.34c16,3,32,8,35,13c3,4,6,111,8,237c3,203,1,231-13,243c-19,16-189,21-218,8
		c-15-8-17-30-17-241c0-128,4-238,8-245C22417.05,47698.34,22553.05,47687.34,22605.05,47696.34z"/>
	<path class="st0" d="M19023.05,47701.34c16,12,18,25,13,112c-2,54-9,103-16,110c-16,16-193,14-214-3c-13-11-16-33-16-112
		c0-54,3-100,7-102c5-3,53-8,108-12C18982.05,47689.34,19009.05,47691.34,19023.05,47701.34z"/>
	<path class="st0" d="M12640.05,47697.34c6,2,10,52,10,117c0,94-3,114-16,119c-31,12-214,7-219-7c-2-6-6-56-9-109c-3-68-1-100,7-107
		C12425.05,47701.34,12619.05,47690.34,12640.05,47697.34z"/>
	<path class="st0" d="M7340.05,47698.34c24,7,25,9,28,111c2,90,0,107-15,117c-22,17-194,18-211,1s-17-217,0-222
		C7169.05,47696.34,7316.05,47691.34,7340.05,47698.34z"/>
	<path class="st0" d="M5699.05,47703.34c8,9,11,50,9,117l-3,104l-109,3c-61,1-114-2-119-7c-13-13-9-202,5-218
		C5497.05,47683.34,5683.05,47684.34,5699.05,47703.34z"/>
	<path class="st0" d="M9838.05,47966.34c12,2,26,12,31,21c11,23,8,189-4,201c-6,5-50,12-100,15c-130,7-135,2-135-119
		c0-120,4-125,108-124C9780.05,47961.34,9825.05,47964.34,9838.05,47966.34z"/>
	<path class="st0" d="M8200.05,47979.34c11,22,6,478-6,490c-5,5-52,12-105,16c-80,6-97,4-111-9c-23-23-21-493,2-507c8-5,59-9,113-7
		C8169.05,47963.34,8194.05,47967.34,8200.05,47979.34z"/>
	<path class="st0" d="M16250.05,47983.34c6,6,10,51,10,102c0,72-3,94-16,105c-19,16-211,26-225,12c-10-10-14-190-4-215
		c6-14,22-16,116-15C16192.05,47973.34,16245.05,47978.34,16250.05,47983.34z"/>
	<path class="st0" d="M22070.05,48253.34c14,14,13,213-2,222c-14,9-215,11-223,2c-7-7-9-218-2-225
		C21853.05,48243.34,22060.05,48243.34,22070.05,48253.34z"/>
	<path class="st0" d="M15690.05,48249.34c4,3,9,51,12,108c5,96,4,104-16,117c-26,19-185,21-208,2c-13-9-17-34-20-114
		c-1-56,1-105,5-109C15471.05,48245.34,15678.05,48241.34,15690.05,48249.34z"/>
	<path class="st0" d="M9034.05,48247.34c2,4,6,54,8,110c4,136,4,135-133,125l-104-8l-3-109c-2-81,1-112,10-118
		C8829.05,48237.34,9027.05,48236.34,9034.05,48247.34z"/>
	<path class="st0" d="M20731.05,48517.34c185,2,248,5,251,15c3,6,2,59-1,116l-6,105l-30,8c-45,12-476,2-485-12c-11-18,1-214,14-225
		C20481.05,48518.34,20577.05,48515.34,20731.05,48517.34z"/>
	<path class="st0" d="M24568.05,48788.34c5,3,12,54,15,113c7,132,9,130-135,126l-103-3l-3-113c-2-84,1-114,10-117
		C24373.05,48786.34,24557.05,48781.34,24568.05,48788.34z"/>
	<path class="st0" d="M25694.05,48797.34c3,5,6,55,7,111c1,78-2,105-12,112c-22,14-213,11-227-3c-15-15-16-181-2-209
		c10-17,22-19,120-19C25640.05,48789.34,25691.05,48793.34,25694.05,48797.34z"/>
	<path class="st0" d="M9318.05,48906.34l-3,118l-109,3c-69,2-113-1-120-8c-14-14-8-200,6-218c7-8,44-12,120-12h109L9318.05,48906.34
		z"/>
	<path class="st0" d="M19024.05,49048.34c10,16,5,215-6,228c-14,17-199,18-216,1c-13-13-17-192-6-222c5-13,25-16,114-16
		C18970.05,49039.34,19021.05,49043.34,19024.05,49048.34z"/>
	<path class="st0" d="M5407.05,49350.34c22,8,23,14,23,108c0,119,3,116-122,120c-129,3-129,3-126-127l3-107l100-1
		C5340.05,49342.34,5395.05,49345.34,5407.05,49350.34z"/>
	<path class="st0" d="M27906.05,49626.34c11,11,14,38,13,114c-2,85-5,101-20,109c-19,11-188,14-213,4c-22-8-24-215-2-233
		C27705.05,49602.34,27887.05,49607.34,27906.05,49626.34z"/>
	<path class="st0" d="M29018.05,49631.34c8,8,12,47,12,108s-4,100-12,108c-17,17-212,16-226-1c-10-12-7-200,4-218
		C28804.05,49614.34,29004.05,49617.34,29018.05,49631.34z"/>
	<path class="st0" d="M28469.05,49632.34c6,8,10,54,10,111c0,94-1,97-25,107c-14,5-65,9-114,9c-121,0-125-4-117-128
		c4-51,9-97,12-103C28245.05,49613.34,28456.05,49617.34,28469.05,49632.34z"/>
	<path class="st0" d="M3115.05,49898.34l90,6l3,104c1,58-2,109-7,114c-11,11-212,10-224-2c-4-4-10-49-12-100c-4-81-2-94,15-111
		c11-11,26-19,32-18C3019.05,49892.34,3065.05,49895.34,3115.05,49898.34z"/>
</g>
</svg>
