<?xml version="1.0" encoding="utf-8"?>
<!-- Generator: Adobe Illustrator 30.3.0, SVG Export Plug-In . SVG Version: 9.03 Build 0)  -->
<svg version="1.0" id="Layer_1" xmlns="http://www.w3.org/2000/svg" xmlns:xlink="http://www.w3.org/1999/xlink" x="0px" y="0px"
	 viewBox="0 0 3066 963.77" style="enable-background:new 0 0 3066 963.77;" xml:space="preserve">
<style type="text/css">
	.st0{fill:#164DC4;}
</style>
<g transform="translate(0.000000,5013.000000) scale(0.100000,-0.100000)">
	<path class="st0" d="M0,48462.01l100,2c67,2,104-1,112-9c20-20,27-136,22-328c-4-142-3-184,7-190c7-4,63-9,124-10c60-1,115-3,121-3
		c20-2,24-57,25-298c0-191,3-234,15-244c11-9,45-10,124-6c91,5,111,3,122-10c9-12,12-76,11-272c-1-141-2-259-2-263c-1-4-13-14-29-21
		c-31-16-182-14-225,2c-25,10-27,15-29,78c-1,38-1,83,1,100c4,65-5,70-135,72c-67,0-122,6-130,12c-10,8-12,37-8,122
		c3,69,1,118-5,127c-8,11-36,16-116,18l-105,4v-687v-687l236,4c130,1,240,5,245,8c14,9,14,217-1,235c-10,12-34,15-109,13
		c-142-2-141-3-141,141c0,83,4,122,12,129c7,5,63,13,123,17c61,4,124,13,142,20c18,8,82,15,148,16c106,3,118,1,131-16
		c11-15,14-90,14-401c0-315,2-384,14-393c10-9,118-11,402-9l389,3l3,104c2,65-1,108-8,116c-9,11-64,14-251,14c-135,1-248,5-258,11
		c-21,11-31,103-22,210l6,65l127,3c89,2,127,6,130,15c1,7,1,125-2,262l-5,250l-117,3c-153,3-153,3-143,164c4,62,11,118,16,124
		c11,13,229,6,246-8c9-7,13-46,13-129c0-65,4-120,9-124c16-9,400-11,463-2c82,12,81,15,79-287c-2-289,2-279-90-270c-31,3-83,1-116-3
		l-59-8l-2-104c-2-151-22-141,289-141c138,0,258-4,265-9c11-7,13-57,11-260c-2-167,0-254,7-261c14-14,215-20,232-7c9,7,12,72,12,261
		c0,183,3,255,12,264c8,8,48,12,115,12c152,0,144-17,141,283l-3,242h-117c-78,0-121,4-129,12c-18,18-24,247-7,259c8,6,123,8,282,4
		l270-5l8-30c5-16,7-192,6-390l-3-360l107-5c163-8,153-15,155,119c1,69,6,118,13,125s97,13,273,16l262,5l5,262c3,183,9,266,17,274
		c9,9,80,11,261,10c193-2,251,1,259,11c6,7,13,63,15,125c1,62,8,117,13,122c6,6,112,12,262,15c139,2,257,7,263,11s10,52,10,119
		c0,145-3,143,149,141c100-1,115-3,128-20c12-16,14-63,12-258c-2-178,0-240,10-250c14-14,504-18,518-3c4,4,10,180,13,391
		c4,293,8,387,18,397c15,15,211,22,247,8l25-10v-384c0-334,2-387,16-400c12-13,39-15,139-14l125,1l2,261l3,261l269,3
		c185,2,273-1,282-9c10-8,13-38,10-116c-1-68,2-110,9-120c10-13,33-16,116-17c57-1,112,2,121,6c16,6,18,22,18,117c0,60,2,116,5,124
		c5,11,31,13,131,12c69-2,130-7,135-12s11-57,13-116c4-81,2-110-9-120c-9-9-54-16-131-21c-74-4-121-12-126-19c-4-7-8-64-8-128
		c0-89-3-119-14-128s-119-11-421-9l-406,3l2-115c2-64-1-121-5-128c-5-8-43-12-120-12c-78,0-125-5-149-15c-25-10-71-15-146-15
		c-99,0-111-2-121-19c-11-22-13-100-4-177l7-52l106-6c82-6,115-4,148,8c32,11,101,16,288,18c136,2,252,6,258,10c7,4,10,48,9,127
		c-1,66,2,122,7,125c17,11,263,8,274-3c7-7,14-60,17-126c3-62,9-117,13-122c13-12,787-17,799-5c6,6,11,111,13,266
		c1,189,5,259,15,271c11,13,63,15,401,15c435,0,426-1,408,65c-12,43-3,715,9,727c5,5,66,10,136,12c114,3,128,2,136-15
		c6-10,10-171,10-392c0-299,3-377,13-386c9-7,106-12,275-15c144-2,266-8,273-11c7-5,10-44,9-119c-2-61-2-117-1-124
		c2-23,49-31,148-24l98,7l5,135l5,135l115,2c174,4,160-6,160,123c0,60,4,112,10,115c5,3,64,7,130,8c94,2,123,6,130,17
		c6,8,10,65,10,127c0,68,4,114,11,118c5,4,124,8,263,8c190,2,257,5,269,15c12,11,14,30,10,111c-8,137-24,129,292,132l250,2l13-24
		c8-16,12-59,10-126c-1-57,2-106,6-110c3-4,186-6,406-5c219,1,401-1,403-5c3-5,7-124,9-266c3-247,2-259-16-273c-16-11-68-14-258-14
		c-237,0-239,0-262,23c-22,22-23,30-21,125c2,67-1,104-9,110c-18,15-502,10-518-6c-19-19-21-207-3-226c19-18,118-30,188-21l54,7
		l12-33c6-17,11-76,11-130s4-100,8-103c5-3,62-6,126-7c72-2,123-7,134-15c13-10,16-28,14-100c-2-49-5-97-8-107c-13-44,3-47,276-47
		c209,0,260-3,269-14c8-10,13-94,16-265c2-139,6-255,9-260c3-4,79-9,168-9c90-1,258-5,373-8c141-4,219-3,238,5l27,11v102
		c0,57-4,108-8,115c-5,8-77,12-252,14c-183,1-250,5-266,15c-21,13-22,18-21,271c0,142,4,266,9,276c8,15,31,17,241,18
		c128,1,246,4,262,8l30,6l3,100c4,155,13,145-122,138l-114-6l-16,26c-14,21-16,45-13,141c3,68,9,122,16,130c9,11,38,14,120,13
		c59,0,113,3,119,7c13,8,18,235,5,237c-5,1-57,3-118,4c-60,1-121,5-134,9l-24,8l7,122c5,87,11,125,22,136s44,16,133,18l118,4l6,259
		c3,142,8,263,12,269c7,11,234,14,251,2c7-4,15-53,19-117c4-60,12-116,17-122c7-9,46-13,127-13c78,0,121-4,129-12s12-51,12-129
		c0-83,4-120,13-126c6-4,66-10,132-13l120-5l5-260c4-208,2-265-8-284c-14-23-15-23-136-16c-83,4-126,11-136,21c-11,11-14,37-11,122
		c2,81-1,111-11,118c-8,6-57,8-123,5l-110-6l-3-370c-2-203,0-380,2-391c9-35,55-47,143-39c43,4,84,12,91,17c8,7,12,45,12,122
		c0,61,4,118,9,125c6,9,25,15,48,15c457-5,758-3,767,5c8,6,11,53,11,138l-1,128l-120,5c-65,3-126,9-135,13c-14,7-16,23-11,120
		c2,62,8,117,12,122c9,11,254,10,272-1c7-5,9-41,5-119c-4-79-3-115,5-123c17-17,222-16,236,1c9,12,16,100,13,185c-2,78,4,82,129,82
		c147,0,150,2,150,143c0,61-4,107-11,114s-46,9-114,6c-96-5-104-4-125,17s-22,28-18,142c3,90,8,122,19,128c8,5,187,8,400,7
		c294-1,389,1,401,10c11,10,15,39,16,125c2,76,6,114,15,120c16,10,239,10,255-1c11-7,14-105,14-535c0-471,2-528,16-543
		c14-13,33-15,119-10c84,5,105,3,118-9c12-13,15-52,15-228c0-117,3-233,6-257c5-35,2-48-13-64c-19-19-26-20-129-12
		c-108,8-393,2-403-9c-7-7-11-438-4-476c2-14,12-29,21-33c27-11,484-7,496,5c5,5,11,60,13,122s5,119,8,126c3,9,40,12,139,12
		c151,0,151,0,141,74c-2,23-1,77,3,121l7,80l116-4c90-2,118,0,130,11c11,11,14,43,14,134v119l-117,1c-79,1-122,5-133,14
		c-13,11-15,66-15,415v402l132-3c113-2,134-5,145-20c10-14,13-101,13-396v-377l23-13c28-16,202-17,218-1c6,6,13,65,16,132
		s10,124,16,128c5,3,60,6,121,7s117,5,123,9c9,6,13,42,13,120c0,62,5,119,10,127c10,15,15,16,176,19l91,1l7,118c5,75,12,122,20,130
		c18,19,230,22,248,4c15-15,21-213,8-248c-8-20-15-21-130-22c-67,0-125-3-128-6c-10-11-4-218,7-229c6-6,63-12,128-14
		c64-2,118-5,120-7s6-55,9-118c4-83,2-123-8-147l-13-33l-400-1l-400-2l-3-111c-2-94,0-115,14-129c15-15,43-16,256-14
		c294,4,278,11,278-125c0-52,2-100,5-108c3-7,1-20-5-28c-8-13-68-16-401-21c-344-6-393-9-407-23c-13-13-18-41-20-131l-4-113l48-8
		c50-7,183-2,374,16c145,13,140,18,140-145v-122l61-7c105-11,176-7,192,9c12,11,15,41,15,130c-1,64,3,120,8,125c6,6,63,11,127,11
		c76,1,120,5,124,13c4,6,8,64,9,129s4,120,7,123s146,5,319,3c443-3,488-2,503,11c20,16,17,479-3,502c-10,12-33,15-124,11
		c-61-2-115-6-120-9s-8-57-7-119c3-140-2-150-76-140c-27,4-82,6-122,6c-60-2-73,1-81,16c-11,21-14,375-4,477l7,69l118,3
		c64,2,122,6,127,9c16,10,13,220-3,233c-7,7-66,13-133,14l-119,3l-3,115c-1,63,0,125,3,137l5,23h263c191,0,266-3,275-12
		s12-79,12-254c0-194,3-244,14-253c9-8,52-11,127-9l114,3l2,264c2,203,5,266,15,273c7,4,64,8,126,7c76-1,117,3,127,11
		c12,10,15,38,15,125c0,88,3,114,14,118c8,3,126,7,263,8c177,1,255-1,271-10l22-12l1-347c0-191,1-365,2-387l2-40l122-5
		c91-4,126-9,137-20c12-11,16-43,18-125c2-89,6-113,20-127c16-16,69-17,805-18c433,0,793,4,800,8c18,11,26,252,9,258
		c-7,3-64,6-127,7l-114,2v125v125l110,7c61,4,120,6,132,3c30-7,36-34,36-143c-1-90,0-94,24-103c13-5,66-9,117-9c75,0,96-3,107-17
		c10-11,15-52,17-129c3-78,8-116,17-124c14-12,188-17,222-6c19,6,21,17,29,139l9,132l123,5c93,4,125,9,132,20c6,9,9,119,7,260
		l-2,245l-530,5c-291,3-536,9-542,13c-14,9-19,230-7,261c5,14,50,16,398,16c292,0,395,3,404,12c8,8,12,50,12,125c0,97,2,113,18,121
		c26,13,213,15,245,3l27-11v-238c0-177,3-243,13-256c18-25,77-35,149-26c35,4,71,3,80-1c26-14,30-58,25-309c-4-215-6-234-23-247
		c-10-8-28-12-39-9s-65,6-120,7l-100,2l3-124c2-94,7-128,18-139c11-12,41-15,131-15c138-1,131,7,132-141c1-63,5-104,13-112
		c16-16,210-16,226,0c8,8,12,46,12,104c0,56,5,105,14,125l14,33h393c217,1,400,5,407,9c9,6,12,70,12,261c0,229,2,254,17,268
		c14,11,43,14,130,12c72-1,118,2,127,10c12,8,16,36,18,116c2,58-1,111-5,117c-6,10-68,13-250,12c-133,0-250,2-259,6s-19,13-22,21
		s-6,127-7,266c0,199,2,253,13,259c17,11,229,11,246,0c9-5,14-43,17-121c2-62,9-118,15-124c9-9,238-11,247-2c1,1,3,53,4,114
		c1,148-3,145,150,139c66-2,122-7,126-11c4-3,8-58,9-122c1-89-2-119-13-130c-11-10-43-14-128-14c-78,0-116-4-121-12
		c-12-18-6-230,7-243c6-6,59-10,125-10c86-1,118-4,129-15c10-11,15-42,16-118c2-129,2-130,149-128l105,1l10,130l10,130l123,5
		c94,4,125,9,133,20c6,9,9,108,7,258c-2,188,0,244,10,251c7,4,65,8,128,10c163,3,162,3,156-133c-5-104-4-106,19-115c13-5,71-9,127-9
		c64-1,109-6,118-13c11-9,14-39,14-125c0-62,4-115,9-118s117-8,250-10c205-4,243-2,256,10c11,12,15,41,15,124c0,98,2,110,19,120
		c28,15,254,13,269-2c8-8,12-51,12-129c0-92,3-119,15-129c11-9,45-11,120-8c65,3,108,1,115-6c6-6,10-146,10-403c0-369-1-394-18-411
		c-16-16-37-19-130-21c-94-2-112,1-120,15c-5,9-7,57-5,108c2,52,0,97-6,106c-8,12-50,14-260,13c-137,0-254-3-259-7
		c-5-3-10-52-10-110c-1-80,3-107,14-117c10-8,46-10,119-7c138,6,138,6,139-142c1-70,5-113,13-121c7-7,54-14,112-17
		c80-4,105-1,124,11c18,11,58,16,158,18c133,3,134,3,147-21c8-17,12-59,10-127c-1-56,1-105,6-110c14-14,219-21,234-8
		c10,9,13,95,14,404c1,266,5,394,12,399c6,3,126,7,266,7s260,3,265,7c11,7,12,209,1,227c-5,7-49,11-126,11c-68,0-121,4-125,10
		c-3,5-8,65-11,132c-2,70-9,125-15,129c-6,3-53,4-104,1c-101-5-154,7-156,37c-1,9,0,66,1,126c1,81,5,114,16,125c13,13,90,15,547,18
		l532,2l8,118c4,64,10,123,12,130c3,8,30,12,87,12c76,0,152,11,164,23c3,3,7,56,10,118c2,62,9,118,14,123c7,7,108,13,270,16
		c142,3,261,8,264,11s9,60,13,128l8,123l122,3c83,2,125-1,132-9c5-6,11-62,13-124c6-145,8-143-144-145l-113-2l-5-129l-5-130l-30-8
		c-16-5-124-8-240-7c-115,0-227,1-247,0l-38-1v-256c0-165-4-263-11-276c-10-19-18-20-132-17l-121,4l-6-31c-4-16-7-259-8-539
		c-1-336-5-512-11-518s-61-10-133-10c-107,0-123,3-136,19c-11,16-13,55-8,219c4,110,3,225-1,255l-8,55l-114,3c-75,2-118-1-127-9
		c-10-9-14-40-14-124c0-145,2-143-150-147l-115-3l-3-124c-2-91,1-126,10-132c7-4,63-6,125-3c143,6,143,6,138-149c-3-96-1-108,15-117
		c11-6,171-10,403-10c333,0,386-2,397-15c10-12,13-78,14-259c1-190,4-247,15-260c12-14,40-16,257-14c171,2,247,7,255,15
		c9,9,11,112,10,399c-1,213-4,391-7,395c-3,5-60,7-128,5s-129,0-136,4c-10,6-13,38-11,120c1,74-2,116-10,126c-9,10-38,14-120,14
		c-140,0-139-1-139,167c0,67,4,124,8,127c5,3,120,6,258,7c137,1,257,6,267,11c15,7,17,24,17,117c0,81,4,111,14,120c8,7,62,14,123,17
		c83,4,111,9,120,22c9,10,13,53,13,123c0,61,4,111,10,114c5,3,68,8,138,11c104,4,131,3,140-9c9-10,13-87,15-260c1-135,6-249,10-253
		s62-8,128-9c94,0,122-4,129-15c5-8,10-67,10-131c0-92,3-119,15-129c20-17,208-9,230,10c14,12,16,44,13,252c-3,199-5,240-18,248
		c-8,5-66,10-127,10h-113v274c0,235,2,275,16,286c10,9,48,13,119,13c74,0,108,3,115,13c13,14,17,187,6,221c-4,11-17,24-30,27
		c-12,3-128,5-256,5c-197-1-236,1-245,14c-14,20-19,211-6,236c10,18,26,19,276,19c225-1,267-3,277-16c9-10,13-52,13-131v-116l123-5
		c94-4,125-8,132-20c5-8,10-63,10-122c0-80,4-110,15-121s42-15,126-16c66,0,117-5,125-12c10-8,14-46,16-132l3-122l48-8
		c26-4,62-4,80,1l32,8l5,2490.99H0V48462.01z M2431,49824.01c4-3,9-58,12-123c5-93,3-119-8-128c-8-7-56-12-118-13
		c-145-3-147-1-147,148c0,74,4,115,12,123c9,9,43,11,128,6C2373,49833.01,2428,49828.01,2431,49824.01z M8812,49821.01
		c15-11,18-32,20-128c1-63-1-121-6-128c-10-17-226-17-248,1c-20,15-21,19-19,135c1,123,5,126,136,130
		C8766,49833.01,8800,49831.01,8812,49821.01z M20768,49424.01c2-101-1-136-10-143c-18-11-201-10-231,1c-13,5-27,15-29,23
		c-3,7-3,65,1,128l6,115l105,6c58,3,116,5,130,5l25-1L20768,49424.01z M27976,49538.01c20-26,19-214,0-240c-13-18-25-19-127-16
		c-63,1-120,7-126,13c-15,12-18,203-4,240c8,22,12,23,126,22C27948,49557.01,27964,49554.01,27976,49538.01z M28814,49547.01
		c3-9,6-69,6-135c0-100-3-121-16-126c-9-3-65-6-126-7c-139-1-138-3-137,143c0,59,3,112,7,118c5,8,48,13,122,16c63,1,120,4,126,5
		C28803,49562.01,28811,49556.01,28814,49547.01z M24370,49534.01c5-11,10-67,10-125c0-136,0-136-148-129c-59,3-113,10-119,16
		c-18,13-18,228-1,245c8,8,51,12,130,12C24348,49553.01,24360,49551.01,24370,49534.01z M4663,49238.01c9-42,6-209-3-219
		c-11-10-252-8-262,2c-7,7-8,50-2,129l9,118l105,6C4661,49282.01,4653,49284.01,4663,49238.01z M21591,49253.01c13-15,15-39,13-121
		c-3-116-14-135-68-125c-16,3-68,6-117,6h-89v128c0,71,2,131,4,133c3,2,58,3,123,1C21557,49272.01,21577,49269.01,21591,49253.01z
		 M10488,49261.01c16-16,17-234,0-244c-17-11-230-12-250-2c-16,8-18,24-18,128c0,85,3,120,13,123
		C10260,49277.01,10476,49273.01,10488,49261.01z M12986,49259.01c3-8,6-61,7-119c3-139,4-137-134-137s-138,0-131,143
		c2,56,9,108,14,115C12758,49280.01,12979,49278.01,12986,49259.01z M13818,49261.01c8-8,12-50,12-123s-4-115-12-123
		c-15-15-221-17-248-2c-17,9-19,22-18,123c0,61,5,118,10,125C13576,49278.01,13801,49278.01,13818,49261.01z M15758,49259.01
		c8-5,12-43,12-121c0-103-2-115-19-125c-29-15-238-13-248,3c-4,6-8,63-10,125c-2,108-1,113,20,122
		C15538,49274.01,15739,49271.01,15758,49259.01z M18813,49259.01c10-11,15-44,16-125c1-96-1-111-16-119c-10-5-69-8-132-7
		c-143,4-141,1-141,142c0,125-4,121,152,122C18772,49273.01,18802,49269.01,18813,49259.01z M500,48994.01c5-11,10-64,10-118
		c0-142-2-144-141-141c-80,1-112,5-121,15c-17,21-15,242,2,253c7,4,64,9,126,9C479,49013.01,490,49012.01,500,48994.01z
		 M3278,48998.01c8-3,12-35,12-115c0-146-3-150-135-150c-67,0-105,5-125,15l-30,16v107c0,114,4,128,35,133
		C3059,49009.01,3260,49003.01,3278,48998.01z M6314,48997.01c14-13,16-52,16-270v-254l-26-10c-16-6-125-9-267-8l-242,3l-11,25
		c-13,32-3,225,13,241c7,7,48,11,117,10c135-2,136-1,131,152c-3,91-1,108,13,117c10,5,67,10,129,10
		C6275,49013.01,6302,49010.01,6314,48997.01z M7990,48994.01c5-11,10-60,10-110c0-49,4-101,10-116l10-26l111,2c142,3,139,6,139-150
		c0-64-4-122-9-129c-7-11-63-14-267-15l-259-2l-3-127c-2-109-5-129-20-136c-9-5-68-12-131-15c-63-4-116-8-118-10s-6-55-10-118
		c-3-65-11-117-17-121c-13-9-238-11-260-2c-13,5-16,26-16,130c0,92-3,124-12,125c-7,0-62,0-123-1c-149-1-146-5-133,140
		c6,63,15,120,22,127c16,17,220,21,240,4c12-10,16-40,18-134l3-122h130h130l5,125c3,69,9,131,13,138c6,8,43,12,126,12
		c90,0,121,3,130,14c9,10,13,90,14,268l2,253l95,6c52,3,109,6,127,7C7970,49012.01,7982,49007.01,7990,48994.01z M11032,49007.01
		c16-5,18-19,18-124c0-149-1-150-139-150c-129,0-131,2-131,137c0,57,4,112,9,122c8,14,26,17,118,19
		C10966,49012.01,11023,49010.01,11032,49007.01z M19923,49006.01c15-4,17-18,17-123c0-151,2-150-156-150c-93,0-113,3-118,16
		c-3,9-6,64-6,124c0,142-1,141,138,139C19857,49011.01,19913,49009.01,19923,49006.01z M20490,48994.01c5-11,10-67,10-124
		c0-133-1-133,134-130c56,1,108-2,116-7c12-7,16-36,18-127c5-157,7-155-154-151l-119,3l-2,110c-4,156-3,155-61,154
		c-85-3-192,7-203,18c-6,6-13,62-15,125c-4,90-2,117,8,126c8,6,59,13,114,15c54,1,109,4,121,5
		C20470,49012.01,20483,49005.01,20490,48994.01z M23260,48998.01c5-3,8-57,6-120c-4-155-5-157-144-153c-70,1-109,6-118,15
		c-8,9-13,45-13,114c-1,123,4,147,32,152C23053,49011.01,23249,49005.01,23260,48998.01z M24918,48985.01c19-24,17-226-3-242
		c-17-14-223-19-243-6c-13,8-18,257-5,269c3,4,58,4,122,1C24877,49002.01,24908,48997.01,24918,48985.01z M2438,48709.01
		c34-34,27-217-9-236c-29-16-235-18-251-2c-9,9-13,47-14,118c-3,141-4,140,145,137C2397,48725.01,2426,48721.01,2438,48709.01z
		 M9386,48720.01c11-11,5-239-7-253c-12-15-223-18-250-4c-17,10-19,23-19,128c0,66,4,122,10,128
		C9132,48731.01,9374,48732.01,9386,48720.01z M9923,48719.01c15-7,17-23,17-126c0-83-4-121-13-128c-17-14-235-18-248-5
		c-11,11-20,202-12,240c3,12,12,23,21,25C9721,48731.01,9905,48726.01,9923,48719.01z M11595,48713.01c13-10,15-53,15-266v-254
		l-26-10c-14-6-72-10-129-10c-60,0-106-4-110-10s-8-60-10-120s-6-114-10-120c-9-15-517-14-533,2c-8,8-12,50-12,123s4,115,12,123
		c9,9,78,12,243,13c126,1,244,4,260,8l30,6l3,255c2,140,7,259,12,265C11352,48733.01,11576,48729.01,11595,48713.01z
		 M12433,48715.01c15-14,17-28,11-121c-9-142-7-141-150-141c-68,0-115,4-119,11c-11,16-13,232-4,251c8,14,26,17,127,16
		C12388,48730.01,12419,48727.01,12433,48715.01z M12987,48711.01c19-15,12-237-8-248c-26-15-226-15-243-1c-13,11-16,36-16,124
		c0,146-3,143,142,139C12924,48723.01,12980,48716.01,12987,48711.01z M14369,48718.01c6-6,12-61,15-124c2-65,9-118,16-125
		c13-13,234-16,247-3c4,5,10,65,13,134l5,126h123c96,0,126-3,138-15c30-30,24-238-8-260c-7-5-65-8-128-6l-115,3l-5-123
		c-4-97-9-127-21-135c-18-13-788-15-808-3c-13,8-15,234-2,254c6,10,41,14,123,16c63,1,119,6,125,9c6,4,11,54,12,124
		c0,87,4,121,14,128C14131,48731.01,14357,48730.01,14369,48718.01z M15491,48712.01c5-8,9-62,9-121c0-135-2-138-113-138
		c-45,0-92-3-104-6c-14-4-28,1-42,15c-19,19-21,33-21,136c0,88,3,116,14,122c8,4,67,8,131,7
		C15455,48727.01,15484,48724.01,15491,48712.01z M21314,48717.01c13-12,16-38,16-119c0-138-1-136,144-133l111,3l10,120
		c6,66,13,125,17,130c3,6,56,10,128,9c94,0,124-4,131-15c5-8,9-61,9-119c0-149-1-149-135-143c-140,8-137,10-134-134
		c1-62-2-118-7-122c-7-8-209-17-261-12c-9,1-13,20-13,59c0,33-3,94-7,137l-6,78l-124-6c-108-4-124-3-132,12c-14,26-19,229-7,246
		c8,11,38,15,111,18c55,1,108,4,117,5S21306,48726.01,21314,48717.01z M1515,48449.01l90-1l3-267l2-267l-22-13c-21-11-113-14-208-6
		l-35,3l-5-122c-3-67-9-125-13-129c-10-10-198-18-230-10c-35,8-47,46-47,144c0,48-5,94-10,102c-7,11-37,17-115,21
		c-76,4-110,10-121,21c-22,22-32,219-12,235c7,6,64,15,126,19c152,9,152,9,152-137c0-75,4-110,13-116c20-12,227-17,239-5
		c7,7,12,103,13,265c1,139,5,259,9,266c5,8,20,9,44,5C1408,48453.01,1465,48450.01,1515,48449.01z M3540,48443.01
		c18-18,20-33,20-135c0-99-2-115-17-123c-10-5-69-8-131-8c-100,1-115,3-128,20c-8,12-11,28-7,40s6,56,5,100c-2,114-2,115,121,119
		c56,1,105,4,110,5C3517,48462.01,3529,48454.01,3540,48443.01z M5496,48423.01c15-44,6-492-10-502c-20-13-490-8-516,5l-23,12l1,250
		c1,200,4,252,15,260c9,6,112,10,268,9l254-1L5496,48423.01z M3001,48426.01c13-33,4-222-11-237c-14-14-225-13-242,2
		c-11,8-17,42-21,115c-5,94-4,104,15,125c20,20,30,22,135,22h113L3001,48426.01z M16605,48443.01c4-6,8-64,8-128c1-64,6-120,12-124
		s123-8,260-8c138,0,256-4,264-9c19-12,19-508-1-527c-23-22-222-23-253-1c-15,12-18,29-19,120c-1,58-5,109-9,114c-5,4-61,7-125,5
		c-65-1-123,2-131,7c-10,7-14,40-15,133c-1,68-6,129-10,136c-5,8-40,12-109,12c-158,0-147-10-147,139c0,70,3,131,7,134
		C16348,48458.01,16598,48454.01,16605,48443.01z M18820,48427.01c6-14,8-30,5-34c-3-5-1-48,5-96c6-57,6-92,0-99
		c-14-17-200-28-250-15l-40,11l6,117c3,64,7,123,10,130c2,9,37,12,129,12h125L18820,48427.01z M4662,48159.01c10-14,5-243-6-253
		c-4-4-62-8-129-8h-121l-2-122c-4-150-9-146,146-139c96,4,110,3,113-12c3-9,4-72,3-140c-1-97-4-125-16-133c-23-15-1048-7-1077,9
		c-21,12-22,18-20,117c3,149,21,140-273,140c-216,0-241,2-257,18c-16,15-18,33-15,140c2,67,8,126,12,131c5,5,301,8,672,8
		c401-1,669,2,678,8c12,7,15,33,15,125c0,91,3,118,15,125C4420,48185.01,4653,48173.01,4662,48159.01z M18257,48171.01
		c9-7,13-45,13-124c0-103-2-114-20-124c-12-7-111-11-261-12c-302-2-282-13-280,160c1,86,3,93,24,102
		C17764,48186.01,18242,48184.01,18257,48171.01z M22985,48163.01c4-6,9-59,12-118c7-137,10-135-134-133c-149,2-149,2-151,136
		c-2,58,0,110,3,116C22723,48177.01,22977,48176.01,22985,48163.01z M21029,47904.01c16-29,16-518,1-536c-11-13-70-15-399-15
		c-294,0-391,3-404,13c-20,15-20,25-11,305c5,150,11,225,19,232c7,6,159,11,381,13c203,1,377,3,386,5
		C21012,47922.01,21024,47915.01,21029,47904.01z M2706,47904.01c28-3,33-53,28-274c-5-275-13-260,140-265c55-2,107-9,114-14
		c18-16,17-254-2-261c-20-8-249,2-258,11c-4,4-9,61-10,127l-3,119l-120,1c-67,1-126,5-133,9c-9,5-12,76-12,271c0,219,2,265,14,272
		C2476,47906.01,2659,47910.01,2706,47904.01z M6886,47888.01c10-13,12-29,7-50c-4-16-6-66-4-111c2-57-1-84-11-91
		c-15-13-235-12-255,0c-19,12-11,246,9,261c9,6,60,11,127,11C6860,47908.01,6873,47906.01,6886,47888.01z M12121,47903.01
		c46-13,49-25,42-156l-6-103l-31-10c-17-5-135-10-262-10c-186-1-234,2-243,13c-8,9-11,55-9,137l3,124l220,5c121,3,227,7,235,8
		S12101,47908.01,12121,47903.01z M12710,47895.01c19-15,22-28,24-107c4-157-4-165-165-165c-65,0-120,3-120,8c-1,4-3,64-4,135
		c-2,147-13,135,120,140c44,2,90,4,101,5C12678,47912.01,12698,47905.01,12710,47895.01z M10211,47887.01c17-20,15-230-2-250
		c-14-17-224-20-249-4c-12,8-14,31-11,127c1,65,8,124,13,131c7,8,45,12,123,12C10176,47903.01,10200,47900.01,10211,47887.01z
		 M14370,47888.01c9-10,13-51,14-119c1-138-2-142-126-144c-98-2-148,10-149,37c-3,71,1,222,6,231c4,6,54,10,124,10
		C14333,47903.01,14360,47900.01,14370,47888.01z M8267,47608.01c12-16,13-40,8-125c-3-57-11-110-17-117c-9-11-64-13-255-12
		c-231,1-246,2-265,21c-15,15-19,28-14,50c3,17,6,69,6,117v87l261-1C8240,47628.01,8252,47627.01,8267,47608.01z M2162,47341.01
		c4-7,8-63,8-125c0-99-2-113-18-122c-24-13-210-12-238,1c-19,9-20,17-19,123c1,65,7,120,13,127
		C1923,47363.01,2150,47359.01,2162,47341.01z M2447,46521.01c13-21,9-236-4-249c-15-15-242-13-260,3c-9,7-13,44-13,124
		c0,97,2,114,18,123C2214,46538.01,2437,46536.01,2447,46521.01z"/>
	<path class="st0" d="M29955,47610.01c-12-6-15-32-15-122c0-103,2-115,19-125c25-13,238-13,243,0c5,14-6,238-12,243
		C30181,47615.01,29970,47619.01,29955,47610.01z"/>
	<path class="st0" d="M19127,47331.01c-16-10-22-469-7-498c10-19,19-20,118-18c102,3,107,4,119,28c18,35,18,449,1,472
		c-10,13-36,17-116,20C19185,47337.01,19133,47335.01,19127,47331.01z"/>
	<path class="st0" d="M30260,47336.01c-19-3-38-10-43-16c-4-7-5-114-1-238c3-124,4-235,0-246c-10-32-50-43-161-43
		c-58,0-107-4-110-10c-10-17-18-145-11-183c13-69,0-67,382-67h344v405v405l-182-2C30377,47341.01,30279,47338.01,30260,47336.01z"/>
	<path class="st0" d="M24672,47068.01c-4-5-8-66-10-135c-1-68-7-129-13-135c-5-5-64-12-129-14l-120-3v-119c0-143-4-139,137-139
		c54,0,103-4,109-8s14-58,18-126c3-65,9-123,13-129c6-10,193-4,225,8c15,6,17,22,16,126c-1,65,1,121,4,125c4,3,64,7,133,8
		c98,2,129,5,136,17c13,19,8,497-6,515C25172,47075.01,24682,47084.01,24672,47068.01z"/>
	<path class="st0" d="M14964,47050.01c-11-6-14-33-14-118v-109l28-11c16-7,66-9,124-6c127,7,128,6,128-134c0-57,4-110,9-117
		c11-19,189-29,219-13c22,12,22,15,22,257c0,187-3,246-12,249C15444,47056.01,14979,47058.01,14964,47050.01z"/>
	<path class="st0" d="M14677,46786.01c-4-3-7-58-7-120c0-63-5-123-10-134c-10-17-22-19-130-19c-65,0-121-4-125-10c-3-5-6-57-7-115
		c-2-83,1-108,13-116c15-10,460-12,497-3l22,6v234c0,128-4,244-10,258c-9,26-10,26-123,26
		C14734,46793.01,14680,46790.01,14677,46786.01z"/>
	<path class="st0" d="M28839,46777.01c-11-13-11-242,0-248c4-3,61-7,127-10s127-8,136-11c15-6,16-29,11-241c-6-298-12-284,125-284
		c53,0,104,4,112,9c10,7,15,38,17,127c2,65,8,123,14,130c8,10,49,14,137,16l127,3l3,103c4,144,6,142-129,142c-61,0-118,4-128,10
		c-16,8-18,22-14,130c3,102,1,121-12,126C29335,46791.01,28849,46789.01,28839,46777.01z"/>
	<path class="st0" d="M10516,46767.01c-3-9-6-57-6-109c0-66,4-96,14-104c9-8,92-12,255-14c206-2,243,0,251,13c11,16,14,189,4,214
		c-5,14-38,16-259,16S10521,46781.01,10516,46767.01z"/>
	<path class="st0" d="M8678,46514.01c-53-3-99-9-102-12s-7-57-8-120l-3-114l119-3c71-2,123,1,129,7c13,13,17,197,6,229
		c-5,13-16,21-26,20S8731,46517.01,8678,46514.01z"/>
	<path class="st0" d="M4409,46506.01c0-5-1-119-3-256c-2-198,0-250,11-259c14-11,215-14,233-3c5,3,10,43,11,88c0,45,4,105,7,132
		l7,50l130,5l130,5v120v120l-262,3C4528,46512.01,4410,46510.01,4409,46506.01z"/>
	<path class="st0" d="M19404,46501.01c-4-7-8-59-8-116c-1-126-6-122,153-122h109l6-31c3-17,6-80,6-140v-109h104c58,0,116-4,130-10
		l26-10l1-197c0-109,4-225,8-258c7-54,5-61-15-82c-21-21-32-23-133-23c-96,0-110-2-115-17c-11-36-4-212,9-223c8-7,103-11,260-12
		c205-1,248,1,256,13c5,8,9,67,9,131c0,106,2,118,19,128c11,5,67,10,125,10c70,0,107,4,112,12c11,17,12,210,2,231
		c-8,15-24,17-123,17s-116,2-123,18c-5,9-9,71-7,136c2,112,3,120,25,138c18,14,30,17,49,11c38-12,160-7,177,7c20,17,20,198,0,226
		c-14,18-28,19-264,19c-197,0-252,3-266,14c-14,12-16,29-12,119c3,68,1,111-6,119C19903,46518.01,19415,46519.01,19404,46501.01z"/>
	<path class="st0" d="M21619,46491.01c-8-15-10-53-6-119c9-143,30-133-280-139c-142-3-264-9-270-13c-9-6-13-42-13-121
		c0-93-3-116-16-127c-11-9-55-16-128-19l-111-5l-3-252l-2-253l22-5c13-3,68-5,123-3l100,3l3,110c3,156,1,154,153,154
		c67,0,123,1,124,3c2,2,6,59,9,127s8,126,10,129c3,2,120,4,261,4c181-1,261-4,271-13c10-8,14-38,14-118c0-163,20-152-278-151
		c-136,0-253,0-260,0c-10,0-12-27-10-117l3-118l75-7c115-11,973-7,988,5c9,7,12,71,12,258c0,136-4,250-8,253c-5,3-55,6-112,7
		c-139,3-140,4-140,147c0,59-4,113-8,120c-6,8-48,15-128,19c-65,3-126,10-135,14c-15,7-16,23-12,114c4,76,2,109-7,120
		c-10,12-36,15-121,15C21638,46513.01,21630,46512.01,21619,46491.01z"/>
	<path class="st0" d="M25248,46506.01c-37-6-43-32-32-146l9-92h120h120v109c0,77-4,113-13,123
		C25439,46513.01,25316,46516.01,25248,46506.01z"/>
	<path class="st0" d="M25792,46501.01c-16-16-17-209,0-226c8-8,50-12,124-12h112l5,33c2,17,4,73,3,122l-1,90l-115,3
		C25839,46513.01,25801,46510.01,25792,46501.01z"/>
	<path class="st0" d="M5638,46248.01c-3-3-157-6-342-6l-336,1v-124c0-99-3-128-16-140c-12-13-39-15-133-15c-65,1-124-1-130-5
		c-14-9-15-232-1-241c19-12,484-17,513-6l29,11l-4,121c-4,146,1,153,91,141c31-4,135-7,231-7c236,0,230-4,230,145c0,60-4,111-9,114
		C5747,46246.01,5645,46255.01,5638,46248.01z"/>
	<path class="st0" d="M8314,46238.01c-19-14-25-209-8-232c9-14,29-16,110-15c131,4,133,5,126,144c-2,57-6,105-8,107
		C8526,46251.01,8326,46247.01,8314,46238.01z"/>
	<path class="st0" d="M13625,46244.01l-60-6v-110c0-90-3-116-18-138l-18-28l-117,3l-117,3l-3-129c-1-75-7-135-14-143
		c-8-9-45-13-139-13c-152,0-141,11-137-145l3-100h265h265l7,115c11,173-3,156,140,154c73-1,128,3,136,9c10,8,13,42,11,134
		c-1,74,2,128,8,134c7,7,30,7,74-1c63-12,138-7,172,11c15,8,17,25,17,124c0,90-3,116-15,122c-8,5-67,5-132,0c-75-5-135-4-166,3
		C13737,46253.01,13725,46253.01,13625,46244.01z"/>
	<path class="st0" d="M24107,46246.01c-10-9-8-215,1-231c15-22,70-31,162-25c122,8,120,10,118-138c-1-83,2-123,11-132
		c8-8,50-12,129-12h117v265v265l-45,7C24541,46254.01,24115,46255.01,24107,46246.01z"/>
	<path class="st0" d="M24995,46244.01c-38-6-40-8-45-47c-9-62-3-183,8-197c15-18,222-13,233,5c11,16,12,238,2,239
		C25163,46249.01,25028,46249.01,24995,46244.01z"/>
	<path class="st0" d="M26083,46246.01c-32-4-33-6-34-51c-4-101,3-177,17-191c9-10,45-16,123-18c104-3,111-2,121,18
		c16,30,6,229-12,240C26285,46253.01,26146,46254.01,26083,46246.01z"/>
	<path class="st0" d="M8845,46233.01c-9-15-6-503,4-513c13-13,492-9,508,4c19,16,19,222-1,238c-9,8-46,10-122,5
		c-139-9-139-9-139,130c0,56-4,106-8,113c-4,6-49,14-105,18c-53,4-104,9-114,11C8859,46242.01,8849,46239.01,8845,46233.01z"/>
	<path class="st0" d="M10245,46225.01c-3-8-5-184-5-392c0-446-15-405,143-397c56,3,103,6,105,6c1,1,2,50,2,111c0,106,11,160,34,160
		c6,0,27-5,46-10c42-12,157-2,174,16c19,19,21,218,1,237c-11,12-36,14-122,10l-109-6l-12,27c-7,15-12,69-12,124c0,53-4,103-9,110
		C10469,46240.01,10252,46244.01,10245,46225.01z"/>
	<path class="st0" d="M11085,46229.01c-8-26-14-222-7-232c9-15,212-26,232-14c11,7,16,36,18,110c6,159,13,151-124,149
		C11131,46240.01,11087,46236.01,11085,46229.01z"/>
	<path class="st0" d="M9682,46221.01c-14-14-16-196-3-217c7-11,34-16,102-17c132-4,135-2,142,89c3,42,3,94,0,116l-6,41h-111
		C9732,46233.01,9690,46229.01,9682,46221.01z"/>
	<path class="st0" d="M18852,46221.01c-7-9-13-52-13-114c-3-152,20-141-285-142c-141-1-259-3-261-6c-9-8-9-211-1-228
		c8-16,24-18,122-18c93,0,116-3,127-17c10-11,15-53,17-132c3-73,8-119,15-123c19-12,235-9,242,2c4,6,7,64,9,130c1,65,4,121,7,125
		c3,3,187,7,409,10c221,2,405,6,407,9c4,3,7,186,4,231c-1,6-94,9-263,8c-178-2-266,1-275,9c-9,7-13,43-13,129c0,69-4,120-10,124
		s-59,9-118,12C18884,46235.01,18862,46233.01,18852,46221.01z"/>
	<path class="st0" d="M23574,46222.01c-6-9-10-154-9-393v-380l30-8c32-9,747-4,762,5c11,7,9,209-1,226c-5,7-48,11-120,11
		c-88,0-116,3-126,15c-7,9-14,60-16,131c-2,64-7,120-9,124c-3,5-58,7-123,5c-154-5-152-6-152,134c0,58-4,113-10,121
		C23787,46234.01,23589,46241.01,23574,46222.01z"/>
	<path class="st0" d="M16342,45956.01c-15-29-15-225,0-244c11-15,28-16,127-9c77,6,117,13,122,22c5,7,9,64,9,126v112h-109
		c-60,0-116,3-124,6C16358,45972.01,16348,45967.01,16342,45956.01z"/>
	<path class="st0" d="M5790,45710.01c0-205,3-257,14-266c9-8,52-11,127-9l114,3l6,110c3,61,3,178,0,260l-6,150l-127,3l-128,3
		V45710.01z"/>
	<path class="st0" d="M6620,45956.01c-3-162,0-506,5-513c4-6,59-10,133-10c70,0,133-4,141-9c11-7,14-34,12-123c-2-86,1-117,11-126
		c15-12,471-19,500-7c9,4,18,19,20,33c5,44-6,200-15,209c-5,4-58,7-117,5c-154-5-150-8-150,136c0,64-4,122-8,128c-5,8-45,12-120,11
		c-147-1-144-3-146,140c-1,59-5,114-9,121C6868,45964.01,6620,45969.01,6620,45956.01z"/>
	<path class="st0" d="M11351,45949.01c-8-9-11-52-9-127l3-114l119-3c76-2,123,1,130,8c14,14,17,221,4,238
		C11583,45969.01,11366,45968.01,11351,45949.01z"/>
	<path class="st0" d="M14125,45955.01c-11-12-5-220,8-229c18-15,471-17,497-3c19,10,20,18,18,122l-3,112l-257,2
		C14247,45960.01,14128,45958.01,14125,45955.01z"/>
	<path class="st0" d="M22965,45953.01l-230-5l-1-118c-1-119-1-119,25-129c14-5,70-8,123-6c60,3,101,1,108-6c6-6,10-58,10-122
		c0-79,4-115,13-121c19-13,206-7,222,7c13,11,14,49,10,254c-5,217-7,241-23,248c-9,3-19,6-22,5S23092,45956.01,22965,45953.01z"/>
	<path class="st0" d="M25499,45961.01c0-2-2-58-4-126c-2-77-8-128-15-137c-10-11-38-15-117-15c-145,0-143,2-143-123
		c0-67,4-107,12-115c9-9,81-12,263-12s254,3,263,12c8,8,12,51,12,128s4,120,12,128s50,12,125,12c133,0,125-9,121,145l-3,100l-262,3
		C25618,45962.01,25500,45962.01,25499,45961.01z"/>
	<path class="st0" d="M29673,45944.01c-10-10-13-41-11-125l3-111l70-8c38-4,155-6,260-5l190,3l3,116c2,91,0,119-12,128
		C30154,45960.01,29691,45963.01,29673,45944.01z"/>
	<path class="st0" d="M15211,45686.01c-152-2-239-7-248-14c-9-8-13-42-13-120v-109l28-11c27-11,484-5,503,7c13,7,11,211-1,235
		c-6,10-16,18-23,17C15450,45689.01,15340,45687.01,15211,45686.01z"/>
	<path class="st0" d="M16622,45685.01c-14-9-13-217,1-239c6-9,42-13,122-13c99,0,115,2,123,18c11,22,6,196-7,219c-8,16-25,19-118,21
		C16684,45692.01,16629,45689.01,16622,45685.01z"/>
	<path class="st0" d="M17741,45680.01c-7-7-11-97-11-259c0-225,2-248,18-257c9-5,65-6,127-2l110,6l3,240c1,132,0,249-2,260
		c-5,18-14,20-120,21C17797,45690.01,17747,45686.01,17741,45680.01z"/>
	<path class="st0" d="M29475,45685.01c-33-2-64-7-69-12c-6-6-11-55-12-109c-2-79,1-103,13-113c19-16,180-23,216-9c25,10,27,14,26,68
		c-1,32-4,83-7,113l-7,55l-50,5C29558,45686.01,29508,45687.01,29475,45685.01z"/>
	<path class="st0" d="M3579,45667.01c-6-7-7-34-3-61c3-27,7-76,8-109l1-59h120h120l3,96c4,146,7,142-127,143
		C3626,45678.01,3585,45674.01,3579,45667.01z"/>
	<path class="st0" d="M4417,45676.01c-4-3-7-55-7-114c0-97,2-109,19-119c21-11,189-14,215-4c13,5,16,24,16,109c0,57-3,110-6,119
		c-5,13-25,16-118,16C4474,45683.01,4420,45680.01,4417,45676.01z"/>
	<path class="st0" d="M7482,45675.01c-22-3-23-5-20-120l3-117l109-3c64-2,113,2,121,8c13,11,12,208-2,221
		C7684,45672.01,7519,45680.01,7482,45675.01z"/>
	<path class="st0" d="M11083,45671.01c-16-21-14-215,2-228c8-7,54-10,126-8l114,3l3,80c2,44,0,99-3,123l-6,42h-113
		C11127,45683.01,11090,45679.01,11083,45671.01z"/>
	<path class="st0" d="M11622,45561.01l3-123l100-3c154-4,145-11,145,116c0,71-4,112-12,120s-51,12-125,12h-114L11622,45561.01z"/>
	<path class="st0" d="M27175,45675.01c-3-3-5-54-5-113c0-75,4-110,13-116c16-10,489-5,500,6c15,15,14,198-1,213c-10,10-71,13-257,14
		C27290,45679.01,27178,45678.01,27175,45675.01z"/>
	<path class="st0" d="M30240,45671.01c-24-9-32-51-28-153l3-80l223-3l222-2v120c0,88-3,121-12,122
		C30612,45680.01,30256,45677.01,30240,45671.01z"/>
	<path class="st0" d="M8016,45665.01c-10-17,1-203,13-215c15-15,200-22,221-8c12,8,15,32,15,103c-1,135,6,128-129,128
		C8073,45673.01,8019,45669.01,8016,45665.01z"/>
	<path class="st0" d="M9678,45657.01c-2-9-1-120,2-246c6-278-2-263,140-254c52,4,98,10,103,15c4,4,6,117,5,252l-3,244l-122,3
		C9696,45673.01,9681,45672.01,9678,45657.01z"/>
	<path class="st0" d="M3890,45414.01l-45-6l-1-107c-1-78,2-110,12-118c16-14,212-14,228-1c15,13,12,209-3,224
		C4068,45419.01,3956,45424.01,3890,45414.01z"/>
	<path class="st0" d="M6378,45415.01c-21-4-20,1-23-125c-1-75,1-100,13-109c15-13,205-19,223-7c13,7,15,217,3,228
		C6585,45411.01,6408,45422.01,6378,45415.01z"/>
	<path class="st0" d="M11345,45415.01c-10-11-5-241,6-248c6-3,61-6,122-6c139,1,139,1,136,127c-4,136,5,128-137,130
		C11405,45419.01,11348,45418.01,11345,45415.01z"/>
	<path class="st0" d="M13595,45414.01l-30-6l-1-105c0-58,4-111,9-117c7-9,44-13,123-13h114l6,26c12,48-4,198-23,212
		C13775,45424.01,13650,45426.01,13595,45414.01z"/>
	<path class="st0" d="M14683,45417.01c-17-7-18-240-2-250c20-12,220-7,232,5c14,14,20,210,7,232c-7,10-36,15-117,16
		C14744,45421.01,14689,45420.01,14683,45417.01z"/>
	<path class="st0" d="M15507,45416.01c-13-12-8-241,5-249c19-12,242-4,250,9c3,6,6,60,6,119c-1,94-4,110-19,119
		C15729,45424.01,15517,45427.01,15507,45416.01z"/>
	<path class="st0" d="M16908,45412.01c-15-8-17-25-16-114c1-72,5-108,14-116c15-12,217-20,235-8c16,9,13,230-3,240
		C17120,45425.01,16927,45424.01,16908,45412.01z"/>
	<path class="st0" d="M18285,45412.01c-6-8-9-63-7-127c3-110,4-113,28-122c37-14,207-13,222,2c18,18,16,222-2,237c-8,7-63,15-123,18
		C18317,45425.01,18293,45423.01,18285,45412.01z"/>
	<path class="st0" d="M24957,45415.01c-3-4-6-55-6-113c-1-75,3-109,12-117c20-17,217-19,227-2c5,7,9,60,9,116c1,92-1,104-18,114
		C25159,45424.01,24964,45427.01,24957,45415.01z"/>
	<path class="st0" d="M28840,45409.01c-6-6-10-58-10-118c0-92,2-108,18-115c9-5,61-7,115-5c79,3,98,6,105,20c4,9,5,64,2,122l-5,105
		h-108C28898,45418.01,28845,45414.01,28840,45409.01z"/>
	<path class="st0" d="M5527,45406.01c-4-3-7-52-7-108c0-76,4-106,14-114c9-8,51-11,122-9l109,3l1,100c2,146,12,135-120,135
		C5584,45413.01,5530,45410.01,5527,45406.01z"/>
	<path class="st0" d="M14233,45406.01c-77-3-94-7-102-22c-12-21-12-179,0-202c7-14,25-16,120-13c78,2,115,7,120,16c5,7,7,55,6,106
		c-2,80-5,96-21,108c-11,8-22,13-25,12S14283,45407.01,14233,45406.01z"/>
	<path class="st0" d="M16066,45395.01c-13-40-11-211,2-224c10-10,71-13,258-13c232,0,246,1,260,19c16,23,20,170,4,210l-10,26h-254
		C16087,45413.01,16071,45412.01,16066,45395.01z"/>
	<path class="st0" d="M26077,45405.01c-9-2-17-7-18-10c-6-58-5-192,2-209c8-22,13-23,118-23c75,0,112,4,118,13c6,6,9,54,8,105
		c-3,123-7,127-124,127C26133,45408.01,26086,45407.01,26077,45405.01z"/>
	<path class="st0" d="M262,45391.01c-15-19-19-195-4-210c9-9,147-15,222-9c7,1,10,41,8,114l-3,112l-106,3
		C302,45403.01,270,45400.01,262,45391.01z"/>
	<path class="st0" d="M8586,45387.01c-12-32-7-201,7-213c21-17,469-10,490,7c12,10,16,34,16,99c1,133,22,123-263,123
		C8623,45403.01,8591,45401.01,8586,45387.01z"/>
	<path class="st0" d="M18000,44885.01c0-237,2-271,16-276c24-9,217-7,232,3c11,6,13,56,12,227c-1,247-5,292-29,297c-9,2-43,5-76,6
		c-33,0-81,4-107,7l-48,6V44885.01z"/>
	<path class="st0" d="M11287,45136.01c-3-2-52-5-108-6l-103-2l1-106c0-58,3-111,7-118c5-7,47-11,120-11h114l6,31c8,40,8,123,0,171
		C11318,45129.01,11300,45149.01,11287,45136.01z"/>
	<path class="st0" d="M14410,45118.01c-5-14-9-68-9-121c0-88,2-96,22-103c34-13,232,1,231,17c-1,6-2,62-2,122l-2,110h-115
		C14421,45143.01,14419,45143.01,14410,45118.01z"/>
	<path class="st0" d="M15879,45136.01c-102-4-99,0-99-134c0-60,4-90,13-98c15-12,217-19,235-7c12,7,14,207,3,224
		C16022,45135.01,15975,45139.01,15879,45136.01z"/>
	<path class="st0" d="M7466,45121.01c-3-7-7-56-10-110c-4-70-2-99,7-106c13-11,223-20,233-10c9,10,11,201,2,221c-8,15-24,17-119,17
		C7500,45133.01,7468,45130.01,7466,45121.01z"/>
	<path class="st0" d="M9966,45125.01c-2-4-6-58-7-120c-3-87,0-115,10-122c18-11,212,0,229,13c16,13,17,208,0,225
		C10185,45134.01,9974,45138.01,9966,45125.01z"/>
	<path class="st0" d="M18562,45119.01c-3-6-5-56-4-111c2-77,7-103,19-112c17-13,200-12,221,1c17,11,16,210-1,224
		C18780,45136.01,18571,45133.01,18562,45119.01z"/>
	<path class="st0" d="M19414,45121.01c-9-14-9-212,0-226c5-8,44-12,121-12c94,0,114,3,119,16c9,22,7,207-2,220
		S19422,45134.01,19414,45121.01z"/>
	<path class="st0" d="M20885,45124.01l-90-6l-3-107c-3-130-6-127,134-125l99,2v105c0,87-2,107-17,122c-10,10-21,17-25,16
		C20978,45130.01,20935,45127.01,20885,45124.01z"/>
	<path class="st0" d="M21907,45121.01c-13-8-20-198-7-218c8-13,48-15,248-17c131-1,245,2,252,7c10,6,13,34,11,117c-1,59-4,110-7,112
		C22397,45129.01,21919,45129.01,21907,45121.01z"/>
	<path class="st0" d="M24508,45126.01l-108-4v-113c0-95,3-115,16-120c25-10,180-7,208,4c26,9,26,11,26,113c0,94-9,133-29,125
		C24617,45130.01,24567,45127.01,24508,45126.01z"/>
	<path class="st0" d="M25793,45120.01c-9-15-14-200-5-214c11-17,219-20,235-4c8,8,11,43,9,113c-2,56-5,105-8,109
		C26016,45137.01,25801,45133.01,25793,45120.01z"/>
	<path class="st0" d="M26623,45115.01c-10-10-13-69-13-262c0-188-3-251-12-257c-7-4-56-6-109-5s-108-2-122-7c-27-10-27-11-27-120
		c0-61,4-113,10-116c5-3,118-8,250-10c204-3,242-1,255,11c11,12,15,40,15,123c0,70,4,111,12,119c9,9,112,12,404,12
		c308,0,394,3,402,13c13,15,13,209,1,229c-7,10-92,13-402,14c-216,0-401,3-410,7c-14,5-15,21-10,115c8,149,11,146-123,147
		C26668,45128.01,26633,45124.01,26623,45115.01z"/>
	<path class="st0" d="M29675,45123.01c-6-10-9-216-3-226c7-11,208-11,226,0c13,8,17,193,4,213
		C29895,45121.01,29681,45133.01,29675,45123.01z"/>
	<path class="st0" d="M12457,45117.01c-4-4-7-51-7-105c0-130,0-131,139-127l106,3v115v115l-116,3
		C12516,45122.01,12461,45120.01,12457,45117.01z"/>
	<path class="st0" d="M13017,45117.01c-4-4-7-56-7-115v-107l38-7c37-6,189,2,203,11c4,2,7,53,6,112l-2,107l-116,3
		C13076,45122.01,13021,45120.01,13017,45117.01z"/>
	<path class="st0" d="M23288,44876.01c-2-137-1-254,0-260c3-9,33-12,110-10c59,1,112,5,117,9c12,7,13,477,1,496c-5,8-41,12-116,12
		h-109L23288,44876.01z"/>
	<path class="st0" d="M27720,45013.01c0-94,2-111,18-118c9-5,58-10,109-11c119-2,123,2,123,115c0,126,2,124-135,124h-115V45013.01z"
		/>
	<path class="st0" d="M0,44733.01v-131l103,3l102,3l3,114c2,75-1,118-9,127c-8,10-37,14-105,14H0V44733.01z"/>
	<path class="st0" d="M4530,44856.01c-52-2-99-8-104-13c-11-11-15-205-5-221c7-12,191-23,221-13c16,5,18,18,18,118
		c0,103-9,142-29,134C4627,44860.01,4582,44857.01,4530,44856.01z"/>
	<path class="st0" d="M10242,44851.01c-8-8-12-49-12-120c0-107,0-109,26-118c32-13,194-13,214,0c11,7,14,33,14,117c0,59-3,114-7,121
		C10466,44868.01,10259,44868.01,10242,44851.01z"/>
	<path class="st0" d="M12187,44856.01c-4-3-7-55-7-114c0-131-3-129,138-128c80,0,102,4,106,16c11,29,6,209-6,221
		C12405,44864.01,12199,44869.01,12187,44856.01z"/>
	<path class="st0" d="M19670,44744.01c0-99,3-120,16-125c9-3,60-6,114-6c84,0,101,3,109,18c12,24,14,174,1,206c-9,26-10,26-125,26
		h-115V44744.01z"/>
	<path class="st0" d="M22754,44855.01c-26-17-31-48-22-142s7-155-8-279c-6-56-5-66,11-77c25-19,218-20,232-1c5,7,9,112,9,243
		c-1,179-4,235-15,248s-32,16-105,16C22806,44863.01,22760,44859.01,22754,44855.01z"/>
	<path class="st0" d="M24665,44846.01c-7-19-5-148,3-201l4-32h113c94,0,114,3,119,16c3,9,6,58,6,109s-3,100-6,109
		c-5,13-25,16-119,16C24687,44863.01,24671,44861.01,24665,44846.01z"/>
	<path class="st0" d="M2191,44839.01c-16-19-7-206,10-217c22-13,203-11,217,3c17,17,16,202,0,216
		C2400,44855.01,2203,44853.01,2191,44839.01z"/>
	<path class="st0" d="M3863,44841.01c-4-7-9-55-10-105c-3-87-2-93,20-107c27-17,184-28,209-15c16,8,18,24,18,112c0,67-4,107-12,115
		C4071,44858.01,3874,44857.01,3863,44841.01z"/>
	<path class="st0" d="M8034,44838.01c-8-6-15-46-19-101c-6-74-5-93,8-106c19-18,196-27,387-19l125,6l3,101c2,77-1,104-11,113
		C8509,44847.01,8053,44853.01,8034,44838.01z"/>
	<path class="st0" d="M9422,44840.01c-6-7-13-53-16-101c-5-119,2-126,122-126c55,0,94,5,104,13c12,9,19,36,23,99
		c10,130,14,125-114,127C9462,44853.01,9430,44850.01,9422,44840.01z"/>
	<path class="st0" d="M15251,44839.01c-8-9-11-51-9-122l3-109l105-3c58-1,112,2,120,8c11,7,16,33,19,100c5,146,10,140-118,140
		C15290,44853.01,15259,44849.01,15251,44839.01z"/>
	<path class="st0" d="M29120,44838.01c-19-23-19-213,0-225c8-6,65-9,125-8l110,3l3,109c1,70-2,113-9,122
		C29332,44860.01,29137,44859.01,29120,44838.01z"/>
	<path class="st0" d="M3400,44586.01c-58-3-97-8-102-16c-9-14-4-200,6-215c11-18,210-16,225,2c16,19,16,203,0,222c-6,8-17,13-23,12
		S3452,44587.01,3400,44586.01z"/>
	<path class="st0" d="M9966,44586.01c-12-12-7-218,6-231c8-8,48-12,113-12s105,4,113,12s12,48,12,115c0,87-3,104-17,111
		C10172,44591.01,9976,44596.01,9966,44586.01z"/>
	<path class="st0" d="M15512,44585.01c-9-6-12-38-10-123l3-114l116-3c85-2,119,1,127,10c7,9,8,38,2,85c-4,39-5,84-2,99
		c8,43-17,54-127,54C15568,44593.01,15519,44589.01,15512,44585.01z"/>
	<path class="st0" d="M16168,44586.01l-96-4l-1-113c-1-95,1-115,15-120c31-12,211-7,221,7c5,6,10,58,12,114c2,93,0,103-18,112
		c-11,6-23,10-28,9C16269,44590.01,16221,44587.01,16168,44586.01z"/>
	<path class="st0" d="M17751,44584.01c-18-12-19-205-1-226c11-13,35-15,124-13l111,3l3,100c4,154,11,145-116,145
		C17813,44593.01,17759,44589.01,17751,44584.01z"/>
	<path class="st0" d="M28834,44583.01c-5-5-9-55-7-119c3-140-6-155-94-158c-32-1-65-3-73-4s-28,1-45,4c-53,12-59,0-57-119
		c1-60,7-113,12-118c14-14,478-18,502-5c17,9,18,30,16,256c-1,183-5,249-15,258C29058,44594.01,28850,44599.01,28834,44583.01z"/>
	<path class="st0" d="M30550,44584.01l-45-6l-3-114c-2-75,1-118,9-127c8-10,34-14,80-14h69v129
		C30660,44606.01,30666,44599.01,30550,44584.01z"/>
	<path class="st0" d="M5252,44568.01c-9-14-11-214-3-219c4-3,55-6,115-7c85-3,109,0,116,11c13,20,13,172,0,205c-10,25-10,25-116,23
		C5305,44580.01,5256,44574.01,5252,44568.01z"/>
	<path class="st0" d="M6914,44570.01c-2-7-3-60-2-118l3-104l117-3l117-3l7,27c8,30,0,187-10,203
		C7135,44589.01,6921,44587.01,6914,44570.01z"/>
	<path class="st0" d="M13845,44561.01c-3-13-4-66-3-118l3-95l99-5c141-7,141-7,140,111c0,52-3,102-7,112c-5,15-22,17-116,17
		C13855,44583.01,13850,44582.01,13845,44561.01z"/>
	<path class="st0" d="M28289,44576.01c-6-39-3-212,3-225c8-15,23-18,111-18c56,0,108,4,115,8c9,6,12,38,10,123l-3,114l-117,3
		C28343,44582.01,28289,44580.01,28289,44576.01z"/>
	<path class="st0" d="M539,44287.01c-8-10-11-49-10-112c2-124,3-126,130-119c51,3,98,10,103,15s10,58,11,118l2,109l-112,2
		C576,44301.01,548,44298.01,539,44287.01z"/>
	<path class="st0" d="M1637,44296.01c-4-3-7-52-7-108c0-80,3-105,15-115c20-17,201-15,221,1c18,15,20,199,2,217
		C1855,44304.01,1649,44309.01,1637,44296.01z"/>
	<path class="st0" d="M2754,44290.01c-2-7-3-60-2-118l3-104h115h115l3,118l3,117h-116C2789,44303.01,2758,44300.01,2754,44290.01z"
		/>
	<path class="st0" d="M3863,44290.01c-4-6-9-117-11-246c-3-216-2-236,14-248c21-15,201-18,223-4c12,8,15,33,13,113c0,57,4,115,9,129
		l10,26l114-1c81-1,118,3,127,12c16,16,21,201,5,220C4354,44308.01,3873,44306.01,3863,44290.01z"/>
	<path class="st0" d="M7471,44290.01c-7-7-11-54-11-113c0-78,3-104,15-114c18-15,209-10,225,6c12,12,18,209,7,220
		C7695,44302.01,7483,44302.01,7471,44290.01z"/>
	<path class="st0" d="M11350,44278.01c-12-32-10-187,2-202s204-18,226-4c16,10,26,184,12,210c-8,15-25,18-120,19
		C11362,44301.01,11359,44301.01,11350,44278.01z"/>
	<path class="st0" d="M14416,44291.01c-22-12-24-199-2-217c9-8,51-11,122-9l109,3l8,83c4,46,3,98-1,115l-8,32l-106,1
		C14480,44300.01,14425,44296.01,14416,44291.01z"/>
	<path class="st0" d="M16911,44288.01c-5-5-8-117-9-247c0-193,2-239,14-249c17-14,199-8,214,7c7,7,9,98,8,255l-3,244h-108
		C16966,44298.01,16915,44294.01,16911,44288.01z"/>
	<path class="st0" d="M18574,44290.01c-2-7-3-60-2-118l3-104l58-7c31-4,83-4,115,0l57,7v115v115l-113,3
		C18605,44303.01,18578,44301.01,18574,44290.01z"/>
	<path class="st0" d="M23291,44290.01c-18-18-14-192,5-211c13-14,50-16,253-16c192,0,241,3,250,14c8,9,11,50,9,117l-3,103l-251,2
		C23378,44301.01,23299,44298.01,23291,44290.01z"/>
	<path class="st0" d="M27461,44290.01c-18-18-14-202,4-217c9-7,50-13,104-14c117-1,123,4,128,116c6,134,12,127-116,126
		C27516,44301.01,27467,44296.01,27461,44290.01z"/>
	<path class="st0" d="M29672,44186.01l3-118h115h115v115v115l-118,3l-118,3L29672,44186.01z"/>
	<path class="st0" d="M823,44036.01c-11-2-24-14-27-26c-2-12-6-124-7-249c-1-177,1-231,12-244s31-15,114-12c67,2,108,8,118,17
		c14,11,17,33,17,120c1,146-1,145,145,146c63,1,117,3,119,6c11,11,17,196,7,222l-11,27l-232-1
		C950,44041.01,835,44038.01,823,44036.01z"/>
	<path class="st0" d="M4713,44032.01l-32-9l3-111c3-61,6-112,8-114c6-7,217-9,223-3c4,4,9,54,11,112c5,133,2,136-104,135
		C4780,44042.01,4731,44037.01,4713,44032.01z"/>
	<path class="st0" d="M7757,44031.01c-15-11-18-31-21-107c-4-131-2-133,139-129l110,3l3,109c1,60-1,113-6,118s-53,11-108,14
		C7799,44044.01,7771,44042.01,7757,44031.01z"/>
	<path class="st0" d="M2199,44006.01c-6-17-9-114-7-252l3-225l25-7c32-9,173-11,194-3c14,5,16,37,16,254s-2,249-16,254
		c-9,3-58,6-110,6C2210,44033.01,2209,44033.01,2199,44006.01z"/>
	<path class="st0" d="M9510,44024.01l-105-6l-3-104c-2-67,1-108,9-117c8-10,38-14,109-14c54,0,105,3,114,6c13,5,16,25,16,119
		s-3,114-16,119c-9,3-16,5-17,4S9568,44027.01,9510,44024.01z"/>
	<path class="st0" d="M13320,44024.01c-24-7-25-9-28-114l-3-107l28-11c31-12,191-2,209,12c15,12,15,184,0,203
		C13514,44022.01,13362,44035.01,13320,44024.01z"/>
	<path class="st0" d="M15253,44026.01c-18-6-18-229-1-239c6-4,57-6,112-5c80,2,104,5,114,18c14,20,17,190,3,212c-7,11-35,15-113,16
		C15311,44029.01,15259,44028.01,15253,44026.01z"/>
	<path class="st0" d="M19963,44020.01c-7-11-11-197-5-214c6-19,64-26,147-18c57,5,78,11,85,24c5,11,6,59,2,117l-7,99h-108
		C20017,44029.01,19966,44025.01,19963,44020.01z"/>
	<path class="st0" d="M20516,44026.01c-3-4-6-55-6-115c0-129-6-123,128-123c71,0,95,4,102,15c6,8,9,62,8,120l-3,105l-111,2
		C20572,44031.01,20519,44029.01,20516,44026.01z"/>
	<path class="st0" d="M4185,43756.01c-22-3-45-9-52-14c-18-15-12-208,7-219c8-4,62-7,120-6l105,1v120v120l-70,1
		C4257,43760.01,4207,43758.01,4185,43756.01z"/>
	<path class="st0" d="M9139,43747.01c-5-7-8-61-7-120l3-109l103-3c56-1,110,2,120,7c16,9,19,25,20,115c2,96,0,106-18,116
		C9334,43767.01,9152,43762.01,9139,43747.01z"/>
	<path class="st0" d="M11091,43754.01c-11-7-14-34-13-116c0-58,3-110,7-113c12-12,208-12,222,0c14,11,19,190,7,222
		c-5,13-24,16-108,16C11151,43763.01,11099,43759.01,11091,43754.01z"/>
	<path class="st0" d="M12250,43755.01l-65-7l-3-107c-2-94-1-108,15-116c25-12,489-16,497-4c7,12,12,219,5,226
		C12690,43756.01,12323,43762.01,12250,43755.01z"/>
	<path class="st0" d="M15506,43747.01c-12-31-7-212,6-220c20-13,211-14,225-2c17,14,18,209,1,226c-8,8-49,12-119,12
		C15531,43763.01,15511,43760.01,15506,43747.01z"/>
	<path class="st0" d="M18020,43753.01c-14-9-23-209-10-225c19-23,225-22,234,1c11,29,7,212-5,220
		C18225,43757.01,18032,43761.01,18020,43753.01z"/>
	<path class="st0" d="M18632,43755.01c-30-2-55-8-58-15c-2-7-6-55-7-106c-2-88,0-95,21-109c30-20,209-13,223,8c5,8,8,60,7,115
		l-3,100l-65,5C18714,43756.01,18661,43757.01,18632,43755.01z"/>
	<path class="st0" d="M3024,43741.01c-12-19-7-199,6-212c16-16,205-15,222,2c9,9,13,43,13,100c1,132,11,122-121,122
		C3068,43753.01,3029,43749.01,3024,43741.01z"/>
	<path class="st0" d="M11630,43746.01c-6-99-3-209,5-220s34-13,120-11l110,3v105c0,58-4,111-9,118
		C11847,43754.01,11630,43759.01,11630,43746.01z"/>
	<path class="st0" d="M19407,43747.01c-4-4-7-54-7-110c0-125-1-124,127-124c124,0,124,1,121,130l-3,105l-116,3
		C19466,43752.01,19411,43750.01,19407,43747.01z"/>
	<path class="st0" d="M22457,43746.01c-13-12-8-210,6-220c15-13,487-17,505-5c9,6,12,37,10,118l-3,109l-256,3
		C22579,43752.01,22461,43750.01,22457,43746.01z"/>
	<path class="st0" d="M24403,43741.01c-4-7-9-57-9-111c-2-83,1-99,15-107c22-11,212-17,228-7c9,6,11,36,8,113c-3,58-7,110-11,115
		C24625,43758.01,24413,43755.01,24403,43741.01z"/>
	<path class="st0" d="M24962,43741.01c-16-20-15-203,2-217c9-8,50-11,117-9l104,3v115v115l-106,3
		C25002,43753.01,24970,43750.01,24962,43741.01z"/>
	<path class="st0" d="M25506,43737.01c-11-30-7-202,6-210c6-4,58-8,114-10c79-1,106,1,115,12c8,10,10,42,5,111c-4,53-9,100-12,104
		c-3,5-54,9-114,9C25531,43753.01,25511,43750.01,25506,43737.01z"/>
	<path class="st0" d="M30232,43741.01c-16-16-17-199,0-216s212-16,225,1c6,6,10,59,9,117l-1,105l-110,3
		C30278,43753.01,30241,43750.01,30232,43741.01z"/>
	<path class="st0" d="M1175,43484.01c-105-7-102-4-104-138c-1-58,3-86,13-96c17-17,178-30,211-17c24,9,35,58,35,159
		c0,83-7,101-39,99C1277,43490.01,1225,43487.01,1175,43484.01z"/>
	<path class="st0" d="M5258,43476.01c-19-23-14-201,7-222c11-12,40-16,111-17c81-1,96,2,105,17c11,21,12,199,1,215
		c-4,6-53,14-109,17C5287,43491.01,5270,43490.01,5258,43476.01z"/>
	<path class="st0" d="M7285,43476.01c-43-2-85-9-92-15c-9-7-13-41-13-109c0-94,1-100,23-108c36-14,207-7,216,8c5,7,9,54,9,103
		c0,75-4,94-19,109c-11,11-25,18-31,17C7371,43480.01,7329,43477.01,7285,43476.01z"/>
	<path class="st0" d="M14185,43474.01l-50-6l-6-95c-3-52-2-103,3-113c14-28,46-34,143-28l90,6l8,93c10,130,2,147-78,148
		C14262,43480.01,14213,43478.01,14185,43474.01z"/>
	<path class="st0" d="M16350,43475.01c-6-2-10-49-10-118v-114h114c79,0,117,4,124,13c14,17,10,193-5,208
		C16561,43476.01,16379,43484.01,16350,43475.01z"/>
	<path class="st0" d="M17280,43476.01c-46-2-90-9-97-15c-19-15-18-191,1-207c9-8,51-11,122-9l109,3l3,101c2,83,0,105-13,118
		c-9,9-22,15-28,14C17370,43480.01,17327,43477.01,17280,43476.01z"/>
	<path class="st0" d="M21343,43470.01c-6-11-6-227,0-234c2-1,52-3,112-4c134-1,135-1,135,121s-2,124-134,127
		C21382,43482.01,21349,43479.01,21343,43470.01z"/>
	<path class="st0" d="M28565,43462.01c-12-18-12-189-1-205c9-12,34-14,121-12l110,3l5,95c3,52,2,103-2,113c-8,15-24,17-118,17
		C28614,43473.01,28569,43469.01,28565,43462.01z"/>
	<path class="st0" d="M910,43213.01l-105-5l-3-110c-2-95,0-111,15-122c23-17,204-18,221-1c8,8,12,49,12,120c0,93-2,108-17,115
		C1023,43214.01,968,43216.01,910,43213.01z"/>
	<path class="st0" d="M14404,43201.01c-12-18-14-211-3-225c10-11,224-11,236,1c3,3,7,54,9,113c3,78,1,109-9,115
		C14617,43218.01,14412,43215.01,14404,43201.01z"/>
	<path class="st0" d="M18845,43202.01c-10-16-3-219,8-226c20-12,216-13,223-1c12,20,12,217,0,228
		C19064,43213.01,18851,43212.01,18845,43202.01z"/>
	<path class="st0" d="M21623,43205.01c-8-5-12-41-11-115c0-93,3-109,19-117c21-12,199-13,217-2c9,6,12,38,10,123l-3,114l-110,3
		C21685,43212.01,21630,43210.01,21623,43205.01z"/>
	<path class="st0" d="M26073,43201.01c-6-7-9-57-8-112c2-123,5-126,125-126c100,0,126,12,112,50c-5,14-7,60-4,104c4,60,2,80-9,87
		C26267,43218.01,26084,43215.01,26073,43201.01z"/>
	<path class="st0" d="M26633,43205.01c-16-10-24-217-9-232c13-13,191-13,216,0c17,9,19,21,17,113c-2,56-6,108-10,115
		C26838,43215.01,26654,43218.01,26633,43205.01z"/>
	<path class="st0" d="M4689,43201.01c-1-2-2-52-3-111c-1-72,3-112,10-118c7-5,61-8,120-7l109,3v105c0,58-3,111-8,118
		c-7,8-43,12-118,12C4739,43203.01,4690,43202.01,4689,43201.01z"/>
	<path class="st0" d="M298,42925.01l-48-3v-103c0-66,4-106,12-114c14-14,214-17,222-4c9,15,10,202,0,211
		C473,42922.01,363,42930.01,298,42925.01z"/>
	<path class="st0" d="M2290,42926.01c-117-6-110,2-110-118c0-104,0-106,26-115c39-15,199-13,212,3c7,8,11,55,10,116
		c-1,99-2,103-25,112c-14,5-30,8-36,7C2360,42930.01,2326,42928.01,2290,42926.01z"/>
	<path class="st0" d="M7215,42926.01c-11-3-22-9-25-13c-3-5-5-55-4-111c0-122-6-116,135-118c62-1,90,3,98,13c6,7,10,46,10,93
		c-1,44,1,85,4,90c4,6,0,19-8,29c-11,16-28,19-102,21C7275,42931.01,7226,42929.01,7215,42926.01z"/>
	<path class="st0" d="M8055,42926.01c-16-3-32-8-35-13c-3-4-6-111-8-237c-3-203-1-231,13-243c19-16,189-21,218-8c15,8,17,30,17,241
		c0,128-4,238-8,245C8243,42924.01,8107,42935.01,8055,42926.01z"/>
	<path class="st0" d="M11637,42921.01c-16-12-18-25-13-112c2-54,9-103,16-110c16-16,193-14,214,3c13,11,16,33,16,112
		c0,54-3,100-7,102c-5,3-53,8-108,12C11678,42933.01,11651,42931.01,11637,42921.01z"/>
	<path class="st0" d="M18020,42925.01c-6-2-10-52-10-117c0-94,3-114,16-119c31-12,214-7,219,7c2,6,6,56,9,109c3,68,1,100-7,107
		C18235,42921.01,18041,42932.01,18020,42925.01z"/>
	<path class="st0" d="M23320,42924.01c-24-7-25-9-28-111c-2-90,0-107,15-117c22-17,194-18,211-1s17,217,0,222
		C23491,42926.01,23344,42931.01,23320,42924.01z"/>
	<path class="st0" d="M24961,42919.01c-8-9-11-50-9-117l3-104l109-3c61-1,114,2,119,7c13,13,9,202-5,218
		C25163,42939.01,24977,42938.01,24961,42919.01z"/>
	<path class="st0" d="M20822,42656.01c-12-2-26-12-31-21c-11-23-8-189,4-201c6-5,50-12,100-15c130-7,135-2,135,119
		c0,120-4,125-108,124C20880,42661.01,20835,42658.01,20822,42656.01z"/>
	<path class="st0" d="M22460,42643.01c-11-22-6-478,6-490c5-5,52-12,105-16c80-6,97-4,111,9c23,23,21,493-2,507c-8,5-59,9-113,7
		C22491,42659.01,22466,42655.01,22460,42643.01z"/>
	<path class="st0" d="M14410,42639.01c-6-6-10-51-10-102c0-72,3-94,16-105c19-16,211-26,225-12c10,10,14,190,4,215
		c-6,14-22,16-116,15C14468,42649.01,14415,42644.01,14410,42639.01z"/>
	<path class="st0" d="M8590,42369.01c-14-14-13-213,2-222c14-9,215-11,223-2c7,7,9,218,2,225
		C8807,42379.01,8600,42379.01,8590,42369.01z"/>
	<path class="st0" d="M14970,42373.01c-4-3-9-51-12-108c-5-96-4-104,16-117c26-19,185-21,208-2c13,9,17,34,20,114c1,56-1,105-5,109
		C15189,42377.01,14982,42381.01,14970,42373.01z"/>
	<path class="st0" d="M21626,42375.01c-2-4-6-54-8-110c-4-136-4-135,133-125l104,8l3,109c2,81-1,112-10,118
		C21831,42385.01,21633,42386.01,21626,42375.01z"/>
	<path class="st0" d="M9929,42105.01c-185-2-248-5-251-15c-3-6-2-59,1-116l6-105l30-8c45-12,476-2,485,12c11,18-1,214-14,225
		C10179,42104.01,10083,42107.01,9929,42105.01z"/>
	<path class="st0" d="M6092,41834.01c-5-3-12-54-15-113c-7-132-9-130,135-126l103,3l3,113c2,84-1,114-10,117
		C6287,41836.01,6103,41841.01,6092,41834.01z"/>
	<path class="st0" d="M4966,41825.01c-3-5-6-55-7-111c-1-78,2-105,12-112c22-14,213-11,227,3c15,15,16,181,2,209
		c-10,17-22,19-120,19C5020,41833.01,4969,41829.01,4966,41825.01z"/>
	<path class="st0" d="M21342,41716.01l3-118l109-3c69-2,113,1,120,8c14,14,8,200-6,218c-7,8-44,12-120,12h-109L21342,41716.01z"/>
	<path class="st0" d="M11636,41574.01c-10-16-5-215,6-228c14-17,199-18,216-1c13,13,17,192,6,222c-5,13-25,16-114,16
		C11690,41583.01,11639,41579.01,11636,41574.01z"/>
	<path class="st0" d="M25253,41272.01c-22-8-23-14-23-108c0-119-3-116,122-120c129-3,129-3,126,127l-3,107l-100,1
		C25320,41280.01,25265,41277.01,25253,41272.01z"/>
	<path class="st0" d="M2754,40996.01c-11-11-14-38-13-114c2-85,5-101,20-109c19-11,188-14,213-4c22,8,24,215,2,233
		C2955,41020.01,2773,41015.01,2754,40996.01z"/>
	<path class="st0" d="M1642,40991.01c-8-8-12-47-12-108s4-100,12-108c17-17,212-16,226,1c10,12,7,200-4,218
		C1856,41008.01,1656,41005.01,1642,40991.01z"/>
	<path class="st0" d="M2191,40990.01c-6-8-10-54-10-111c0-94,1-97,25-107c14-5,65-9,114-9c121,0,125,4,117,128c-4,51-9,97-12,103
		C2415,41009.01,2204,41005.01,2191,40990.01z"/>
	<path class="st0" d="M27545,40724.01l-90-6l-3-104c-1-58,2-109,7-114c11-11,212-10,224,2c4,4,10,49,12,100c4,81,2,94-15,111
		c-11,11-26,19-32,18C27641,40730.01,27595,40727.01,27545,40724.01z"/>
</g>
</svg>
